<svg id="Camada_1" data-name="Camada 1" xmlns="http://www.w3.org/2000/svg" viewBox="0 0 2951.41 2885.93"><defs><style>.cls-1{fill:#343434;}</style></defs><title>house5</title><path class="cls-1" d="M2773.76,2086.51a8.14,8.14,0,0,1,7.24-11.94h91.31a8,8,0,0,0,6.87-11.94l-126.82-237.73h95a5.8,5.8,0,0,0,5.07-8.35l-137-255.86a5.77,5.77,0,0,1,5.07-8.3h63a5.33,5.33,0,0,0,4.7-8l-197.11-368.52c-1.8-4-7.61-4-9.78,0L2384.2,1544.4a5.51,5.51,0,0,0,5.07,8h63a5.77,5.77,0,0,1,5.07,8.3l-137,255.86a5.64,5.64,0,0,0,4.7,8.35h95.28l-127.19,237.73a8.14,8.14,0,0,0,7.24,11.94h91.31a8.13,8.13,0,0,1,7.24,11.94l-198.58,371.06a8.14,8.14,0,0,0,7.24,11.94h335.92v477.36h85.5V2469.52H2965c6.18,0,9.78-6.5,7.24-11.94Z" transform="translate(-21.66 -88.34)"/><path class="cls-1" d="M621.92,2437.7A121.54,121.54,0,0,0,500.4,2559.22c0,27.72,9.64,52.94,25.23,73.37-33.07,36.66-73.65,84.3-119.35,142.32-6.09-115.43-8.3-246,2.12-350.22a129.64,129.64,0,0,0,20,2,131.83,131.83,0,1,0-131.8-131.8c0,61.24,42,112.25,98.55,127.05-14.25,53.4-31.36,126-47.69,214.77-46.44-58.48-87.07-105.61-119.81-141.53a121.29,121.29,0,1,0-84.44,34.45c27.72,0,53-9.64,73.46-25.32,39.94,61.75,80.24,137.2,117.09,212.88-12.08,76.19-22.87,162.33-31.08,257.1H420.9c-2.54-27.35-5.35-59.63-8.16-97.68,38.28-80.47,81-163.21,123.73-231.09a121.5,121.5,0,1,0,85.46-207.8Z" transform="translate(-21.66 -88.34)"/><path class="cls-1" d="M1925.7,418.54l149.79,124.38,1.71,1.43V435.65c-22.41-18.49-326.56-271.35-349-290a49.28,49.28,0,0,0-63,0c-71.25,59.21-33.25,27.62-182.39,151.68V216.22a14.11,14.11,0,0,0-14.11-14.11h-71.8a14.12,14.12,0,0,0-14.11,14.16V380.54c-45.33,37.72-33.16,27.58-66.32,55.16v108.7l380.24-316.18C1700.88,231.67,1921.46,415,1925.7,418.54Z" transform="translate(-21.66 -88.34)"/><path class="cls-1" d="M2009,802.28V603.7l33.25,25.41,31.41-41.55L1696.87,282.31,1320,587.56l31.41,41.55,33.25-25.41v61.89Zm-405.46-321h186.59V667.9H1603.57Z" transform="translate(-21.66 -88.34)"/><path class="cls-1" d="M1098.82,284.11H223.7V2124H992.15v-1481c0-32.33,30.48-56.82,62.35-49.85l44.32,9.68ZM619,1981.73H365.92V1523.6H619Zm0-542.16H365.92v-471H619ZM619,884H365.92V426.33H619ZM956.59,1981.73H703.5V1523.6H956.59Zm0-542.16H703.5v-471H956.59Zm0-555.58H703.5V426.33H956.59Z" transform="translate(-21.66 -88.34)"/><path class="cls-1" d="M167.94,230.57h986.59a71.11,71.11,0,0,0,0-142.23H167.94a71.11,71.11,0,0,0,0,142.23Z" transform="translate(-21.66 -88.34)"/><path class="cls-1" d="M2218.23,2124a67.48,67.48,0,0,1-4.15-6,101.28,101.28,0,0,1-2.31-99.29l62.35-115.89a103.67,103.67,0,0,1-34.17-35.1,99.47,99.47,0,0,1,1.38-98.83l80.8-150.53a95.78,95.78,0,0,1-16.19-19.88c-18-29.1-19.88-64.66-4.61-95.14l99.75-186.13v-356L1114,679a41.93,41.93,0,0,0-50.78,41.09V2124h478V1610h381.9v514Zm-680.69-673.77H1242.89V1059h294.64Zm321.44,0h-253V1059h253ZM1927.32,1059H2221.5v391.17H1927.32Z" transform="translate(-21.66 -88.34)"/></svg>