<?xml version="1.0"?>
<svg xmlns="http://www.w3.org/2000/svg" xmlns:xlink="http://www.w3.org/1999/xlink" version="1.1" id="Layer_1" x="0px" y="0px" viewBox="0 0 496 496" style="enable-background:new 0 0 496 496;" xml:space="preserve" width="512px" height="512px" class=""><g><polygon style="fill:#FF7E65" points="155.18,136 267.524,272 300.02,272 412.004,136 " data-original="#F9BA48" class="active-path" data-old_color="#F9BA48"/><g>
	<rect x="211.524" y="160" style="fill:#3E3E3E" width="32" height="16" data-original="#333333" class="" data-old_color="#3e3e3e"/>
	<rect x="259.524" y="160" style="fill:#3E3E3E" width="16" height="16" data-original="#333333" class="" data-old_color="#3e3e3e"/>
	<path style="fill:#3E3E3E" d="M363.524,456h-55.976l0.472-181.128L468.476,80h-265.36c-4.056-44.784-41.768-80-87.592-80   c-48.52,0-88,39.48-88,88s39.48,88,88,88c23.576,0,39.728-7.648,49.88-15.064l94.12,113.936V456h-56c-27.84,0-48,19.12-48,32v8h256   v-8C411.524,475.12,391.364,456,363.524,456z M115.524,160c-39.704,0-72-32.296-72-72s32.296-72,72-72   c37,0,67.536,28.056,71.528,64H98.54l5.744,6.952l-41.88,34.904l10.248,12.296l29.176-24.312l-10.056,40.224l15.512,3.872   l12.16-48.64l35.744,43.272C147.084,154.28,134.3,160,115.524,160z M178.468,480c5.392-4.072,13.832-8,25.056-8h72V269.128   L172.164,144h151.36v-16H158.94l-26.432-32h302.064l-26.352,32h-68.696v16h55.528L293.844,266.912l-1.816,2.208L291.5,472h72.024   c11.256,0,19.704,3.944,25.088,8H178.468z" data-original="#333333" class="" data-old_color="#3e3e3e"/>
</g></g> </svg>
