<?xml version="1.0" encoding="iso-8859-1"?>
<!-- Generator: Adobe Illustrator 19.0.0, SVG Export Plug-In . SVG Version: 6.00 Build 0)  -->
<svg xmlns="http://www.w3.org/2000/svg" xmlns:xlink="http://www.w3.org/1999/xlink" version="1.1" id="Layer_1" x="0px" y="0px" viewBox="0 0 512.066 512.066" style="enable-background:new 0 0 512.066 512.066;" xml:space="preserve" width="512px" height="512px">
<g>
	<g>
		<g>
			<path d="M358.323,247.499c0-4.71-3.823-8.533-8.533-8.533h-28.86l10.897-21.786c2.108-4.215,0.401-9.335-3.823-11.452     c-4.215-2.108-9.344-0.393-11.443,3.823l-14.711,29.414H204.8v-76.8c0-4.71-3.823-8.533-8.533-8.533s-8.533,3.823-8.533,8.533     v76.8H83.797l-15.701-78.473c-0.913-4.617-5.41-7.629-10.035-6.69c-4.625,0.922-7.62,5.419-6.69,10.035l17.067,85.333     c0.794,3.994,4.292,6.861,8.363,6.861h112.469l15.701,78.473c0.802,4.053,4.369,6.861,8.354,6.861     c0.555,0,1.118-0.051,1.681-0.171c4.625-0.922,7.62-5.419,6.69-10.035l-15.019-75.128H349.79     C354.5,256.032,358.323,252.209,358.323,247.499z" fill="#ffffff"/>
			<path d="M238.857,273.099c-4.71,0-8.533,3.823-8.533,8.533s3.823,8.533,8.533,8.533h8.533c4.719,0,8.533-3.823,8.533-8.533     s-3.814-8.533-8.533-8.533H238.857z" fill="#ffffff"/>
			<path d="M128,102.432h68.267c4.71,0,8.533-3.823,8.533-8.533s-3.823-8.533-8.533-8.533H128c-4.71,0-8.533,3.823-8.533,8.533     S123.29,102.432,128,102.432z" fill="#ffffff"/>
			<path d="M400.99,341.365c-14.114,0-25.6,11.486-25.6,25.6s11.486,25.6,25.6,25.6c14.123,0,25.6-11.486,25.6-25.6     S415.113,341.365,400.99,341.365z M400.99,375.499c-4.702,0-8.533-3.831-8.533-8.533s3.831-8.533,8.533-8.533     c4.702,0,8.533,3.831,8.533,8.533S405.692,375.499,400.99,375.499z" fill="#ffffff"/>
			<path d="M17.067,324.299v42.667c0,4.71,3.823,8.533,8.533,8.533c4.71,0,8.533-3.823,8.533-8.533v-51.2     c0-4.71-3.823-8.533-8.533-8.533h-8.533v-85.333H25.6c4.71,0,8.533-3.823,8.533-8.533v-58.522     c3.738-12.297,12.117-18.278,25.6-18.278h204.723c20.471,0,40.132,11.324,52.915,30.729l50.961,67.738     c2.236,4.062,12.757,21.001,32.657,21.001h25.6c36.617,0,51.14,20.267,56.789,34.133h-14.123c-4.71,0-8.533,3.823-8.533,8.533     s3.823,8.533,8.533,8.533h18.338l7.006,43.23c0.597,2.261,0.401,4.036-0.563,5.291c-1.314,1.707-4.122,2.68-7.714,2.68h-26.283     c-4.156-28.902-29.013-51.2-59.051-51.2c-32.939,0-59.733,26.795-59.733,59.733s26.795,59.733,59.733,59.733     c30.037,0,54.895-22.298,59.051-51.2h26.283c9.054,0,16.589-3.311,21.231-9.318c4.241-5.504,5.513-12.629,3.729-19.243     l-8.055-49.911c-5.615-28.066-28.698-58.061-76.638-58.061h-25.6c-11.409,0-17.741-12.22-17.775-12.288     c-0.239-0.486-0.521-0.947-0.845-1.374l-51.046-67.823c-15.642-23.782-40.636-37.982-66.867-37.982h-25.6v-17.067h25.6     c14.601,0,25.6-11.008,25.6-25.6c0-21.931-29.03-42.667-59.733-42.667H68.267c-9.412,0-17.067,7.654-17.067,17.067v34.133     c0,9.412,7.654,17.067,17.067,17.067h17.067v17.067h-25.6c-21.35,0-36.796,11.614-42.359,31.872     c-0.205,0.734-0.307,1.502-0.307,2.261v51.2C7.654,204.832,0,212.486,0,221.899v85.333C0,316.644,7.654,324.299,17.067,324.299z      M400.99,409.632c-23.526,0-42.667-19.14-42.667-42.667c0-23.526,19.14-42.667,42.667-42.667     c23.526,0,42.667,19.14,42.667,42.667C443.657,390.492,424.516,409.632,400.99,409.632z M68.267,85.365V51.232h162.057     c21.973,0,42.667,14.421,42.667,25.6c0,6.289-4.403,8.533-8.533,8.533h-34.133c-4.71,0-8.533,3.823-8.533,8.533v25.6H102.4v-25.6     c0-4.71-3.823-8.533-8.533-8.533H68.267z" fill="#ffffff"/>
			<path d="M336.614,461.728l-17.067-8.533c-3.285-1.63-7.253-0.981-9.847,1.604l-8.533,8.533c-3.336,3.336-3.336,8.73,0,12.066     c3.337,3.337,8.73,3.337,12.066,0l4.181-4.181l11.571,5.786c1.22,0.606,2.526,0.896,3.806,0.896c3.132,0,6.144-1.724,7.646-4.719     C342.545,468.964,340.83,463.836,336.614,461.728z" fill="#ffffff"/>
			<path d="M506.163,435.667l-25.6-8.533c-2.364-0.777-4.941-0.495-7.091,0.785l-41.574,24.943l-31.881,7.97h-33.084     c-4.71,0-8.533,3.823-8.533,8.533s3.823,8.533,8.533,8.533h34.133c0.7,0,1.391-0.085,2.074-0.256l34.133-8.533     c0.811-0.205,1.596-0.529,2.321-0.964l39.296-23.578l21.879,7.296c4.471,1.493,9.301-0.93,10.795-5.402     S510.635,437.161,506.163,435.667z" fill="#ffffff"/>
			<path d="M264.533,460.832h-40.653l-15.266-7.637c-2.022-0.998-4.369-1.178-6.511-0.461l-25.6,8.533     c-4.471,1.493-6.895,6.323-5.402,10.795c1.195,3.575,4.523,5.837,8.098,5.837c0.887,0,1.801-0.137,2.697-0.435l22.246-7.415     l13.909,6.955c1.178,0.589,2.492,0.896,3.814,0.896h42.667c4.71,0,8.533-3.823,8.533-8.533S269.244,460.832,264.533,460.832z" fill="#ffffff"/>
			<path d="M110.933,341.365c-14.114,0-25.6,11.486-25.6,25.6s11.486,25.6,25.6,25.6s25.6-11.486,25.6-25.6     S125.047,341.365,110.933,341.365z M110.933,375.499c-4.702,0-8.533-3.831-8.533-8.533s3.831-8.533,8.533-8.533     c4.702,0,8.533,3.831,8.533,8.533S115.635,375.499,110.933,375.499z" fill="#ffffff"/>
			<path d="M133.12,462.539l-34.133-25.6c-1.869-1.399-4.224-1.971-6.528-1.587l-51.2,8.533c-1.749,0.29-3.371,1.126-4.625,2.381     l-14.566,14.566H8.533c-4.71,0-8.533,3.823-8.533,8.533s3.823,8.533,8.533,8.533H25.6c2.261,0,4.437-0.896,6.033-2.5l15.13-15.13     l44.902-7.484l31.215,23.407c1.536,1.152,3.328,1.707,5.111,1.707c2.594,0,5.163-1.178,6.835-3.413     C137.651,470.714,136.892,465.363,133.12,462.539z" fill="#ffffff"/>
			<path d="M324.19,366.965c0-4.71-3.823-8.533-8.533-8.533H169.984c-4.156-28.902-29.013-51.2-59.051-51.2     c-32.939,0-59.733,26.795-59.733,59.733s26.795,59.733,59.733,59.733c30.037,0,54.895-22.298,59.051-51.2h145.673     C320.367,375.499,324.19,371.676,324.19,366.965z M110.933,409.632c-23.526,0-42.667-19.14-42.667-42.667     c0-23.526,19.14-42.667,42.667-42.667c23.526,0,42.667,19.14,42.667,42.667C153.6,390.492,134.46,409.632,110.933,409.632z" fill="#ffffff"/>
			<path d="M34.133,247.499v34.133c0,4.71,3.823,8.533,8.533,8.533c4.71,0,8.533-3.823,8.533-8.533v-34.133     c0-4.71-3.823-8.533-8.533-8.533C37.956,238.965,34.133,242.788,34.133,247.499z" fill="#ffffff"/>
		</g>
	</g>
</g>
<g>
</g>
<g>
</g>
<g>
</g>
<g>
</g>
<g>
</g>
<g>
</g>
<g>
</g>
<g>
</g>
<g>
</g>
<g>
</g>
<g>
</g>
<g>
</g>
<g>
</g>
<g>
</g>
<g>
</g>
</svg>
