<svg xmlns="http://www.w3.org/2000/svg" xmlns:xlink="http://www.w3.org/1999/xlink" version="1.1" id="Capa_1" x="0px" y="0px" viewBox="0 0 496 496" style="enable-background:new 0 0 496 496;" xml:space="preserve" width="512" height="512" class=""><g><g>
	<path style="fill:#FFA04F" d="M348.368,193.576c-29.424-19.616-55.864-43.376-78.504-70.544l0,0   c-29.632-35.56-70.808-59.568-116.352-67.848C141.864,53.064,130.04,52,118.2,52H64c30.928,0,56,64.472,56,144S94.928,340,64,340   h88c-13.256,0-24-10.744-24-24s10.744-24,24-24c0-26.512,21.488-48,48-48s48,21.488,48,48h16c2.984,0,5.888,0.312,8.72,0.832   C276.112,274.176,292.368,260,312,260s35.888,14.176,39.28,32.832c2.832-0.52,5.736-0.832,8.72-0.832h16v-80L348.368,193.576z" data-original="#FFA64D" class="active-path" data-old_color="#FFA64D"></path>
	<path style="fill:#FFA04F" d="M200,340h96c-26.512,0-48-21.488-48-48C248,318.512,226.512,340,200,340z" data-original="#FFA64D" class="active-path" data-old_color="#FFA64D"></path>
</g><path style="fill:#3E3E3E" d="M496,303.712c0-9.688-3.776-18.808-10.632-25.656L475.312,268l10.056-10.056  c6.856-6.856,10.632-15.968,10.632-25.656C496,212.28,479.72,196,459.712,196c-9.688,0-18.808,3.776-25.656,10.632L412.688,228H384  v-20.28l-31.192-20.8c-28.8-19.2-54.632-42.416-76.8-69.008c-30.768-36.928-73.768-62-121.064-70.6  C142.848,45.112,130.488,44,118.2,44H64C27.512,44,0,109.344,0,196c0,61.136,13.728,111.544,34.608,136H0v64h27.88l40,56h360.232  l40-56H496v-64h-13.84C490.528,325.344,496,315.208,496,303.712z M419.312,244l26.056-26.056c3.832-3.832,8.928-5.944,14.344-5.944  c11.184,0,20.288,9.104,20.288,20.288c0,5.416-2.112,10.512-5.944,14.344L452.688,268l21.368,21.368  c3.832,3.832,5.944,8.928,5.944,14.344c0,11.184-9.104,20.288-20.288,20.288c-5.416,0-10.512-2.112-14.344-5.944L419.312,292H384v-8  v-40H419.312z M152.088,63.056c43.608,7.928,83.256,31.048,111.632,65.104c23.144,27.776,50.136,52.024,80.208,72.08L368,216.28V284  h-8c-0.952,0-1.88,0.096-2.816,0.144C350.52,265.216,332.52,252,312,252s-38.52,13.216-45.184,32.144  C265.88,284.096,264.952,284,264,284h-8.64c-0.464-3.24-1.176-6.4-2.176-9.432c6.192-2.688,12.192-5.864,17.88-9.664l21.376-14.248  l-8.872-13.312l-21.376,14.248c-5.12,3.416-10.536,6.256-16.128,8.632C235.944,245.608,219.08,236,200,236  c-28.496,0-52.04,21.416-55.512,48.984C130.472,288.384,120,300.952,120,316c0,5.856,1.696,11.272,4.448,16H93.384  C114.272,307.544,128,257.136,128,196S114.272,84.456,93.392,60H118.2C129.528,60,140.928,61.024,152.088,63.056z M328,332h-7.192  c3.712-18.232,19.88-32,39.192-32h7.192C363.48,318.232,347.32,332,328,332z M136,316c0-8.824,7.176-16,16-16s16,7.176,16,16  s-7.176,16-16,16S136,324.824,136,316z M181.768,327.528C183.16,323.936,184,320.072,184,316c0-14.616-9.912-26.848-23.328-30.656  C163.864,266.464,180.224,252,200,252c11.872,0,22.432,5.304,29.768,13.544C222.672,267.16,215.384,268,208,268v16  c10.208,0,20.24-1.424,29.936-4.072C239.16,283.76,240,287.768,240,292c0,22.056-17.944,40-40,40  C193.592,332,187.392,330.416,181.768,327.528z M248,320.696c2.48,4.136,5.448,7.944,8.88,11.304h-17.76  C242.552,328.64,245.52,324.832,248,320.696z M256.808,300H264c19.32,0,35.48,13.768,39.192,32H296  C276.68,332,260.52,318.232,256.808,300z M282.704,287.28C287.696,275.824,299.104,268,312,268s24.304,7.824,29.296,19.28  c-12.328,4.392-22.656,12.96-29.296,24.024C305.36,300.24,295.032,291.672,282.704,287.28z M16,196c0-80.152,25.296-136,48-136  s48,55.848,48,136S86.704,332,64,332S16,276.152,16,196z M480,380h-48v16h16.456l-28.568,40H76.12l-28.568-40H416v-16H16v-32h280h8  h16h8h152V380z M367.12,332c6.712-6.56,11.768-14.784,14.528-24h31.048l21.368,21.368c0.992,0.992,2.12,1.768,3.2,2.632H367.12z" data-original="#333333" class="" data-old_color="#3e3e3e"></path><ellipse style="fill:#FFA04F" cx="64" cy="196" rx="24" ry="96" data-original="#FFA64D" class="active-path" data-old_color="#FFA64D"></ellipse></g> </svg>