<?xml version="1.0" encoding="iso-8859-1"?>
<!-- Generator: Adobe Illustrator 19.0.0, SVG Export Plug-In . SVG Version: 6.00 Build 0)  -->
<svg xmlns="http://www.w3.org/2000/svg" xmlns:xlink="http://www.w3.org/1999/xlink" version="1.1" id="Capa_1" x="0px" y="0px" viewBox="0 0 512 512" style="enable-background:new 0 0 512 512;" xml:space="preserve" width="512px" height="512px">
<g>
	<g>
		<path d="M503.467,494.933H492.39c-13.102-40.79-1.027-118.904-0.923-119.558c12.988-72.258-15.429-119.383-16.7-121.442    c-0.462-0.729-0.876-1.543-1.328-2.292l-0.018-0.042c-1.93-3.205-3.795-6.637-5.593-10.295l-0.026-0.052    c-5.945-12.446-10.731-25.412-14.298-38.736c-5.288-19.671-9.25-39.675-11.86-59.877c-0.089-0.657-0.179-1.316-0.266-1.97    c-0.61-4.617-1.169-9.197-1.667-13.706l-0.051-0.443c-0.501-4.562-0.937-9.038-1.334-13.437c-0.101-1.122-0.19-2.212-0.284-3.32    c-0.276-3.212-0.528-6.367-0.755-9.463c-0.089-1.21-0.18-2.428-0.261-3.612c-0.269-3.917-0.515-7.769-0.713-11.431    c4.246-0.557,7.421-4.176,7.421-8.458V42.667c0.001-2.263-0.898-4.434-2.499-6.035c-1.6-1.6-3.771-2.499-6.035-2.499V25.6    C435.185,11.468,423.732,0.015,409.6,0h-17.067c-14.132,0.015-25.585,11.468-25.6,25.6v8.533    c-2.263-0.001-4.434,0.898-6.035,2.499c-1.6,1.6-2.499,3.771-2.499,6.035V76.8c0,4.282,3.175,7.901,7.421,8.458    c-0.199,3.664-0.444,7.516-0.713,11.435c-0.081,1.181-0.172,2.394-0.26,3.599c-0.225,3.072-0.477,6.213-0.75,9.405    c-0.098,1.146-0.19,2.274-0.295,3.436c-0.394,4.361-0.827,8.796-1.323,13.317l-0.089,0.76c-0.485,4.374-1.027,8.816-1.617,13.291    c-0.102,0.775-0.209,1.553-0.315,2.331c-0.631,4.64-1.306,9.31-2.062,13.999l-0.019,0.127    c-2.414,15.353-5.669,30.562-9.749,45.558c-3.55,13.244-8.303,26.137-14.199,38.516l-0.217,0.443    c-1.771,3.587-3.603,6.972-5.501,10.124l-0.002,0.005c-0.475,0.789-0.911,1.644-1.398,2.411    c-1.217,1.975-29.633,49.1-16.675,121.183c0.132,0.822,12.225,78.911-0.893,119.733H145.067V315.32    c1.638-0.119,3.271-0.246,4.892-0.432c1.643-0.184,3.256-0.462,4.883-0.713c2.645-0.417,5.26-0.909,7.849-1.5    c2.068-0.463,4.123-0.937,6.156-1.508c1.716-0.49,3.386-1.084,5.071-1.648c8.942-2.947,17.499-6.952,25.49-11.93    c0.334-0.208,0.664-0.418,0.995-0.63c8.473-5.398,16.228-11.848,23.08-19.196c0.648-0.689,1.317-1.356,1.949-2.06    c1.764-1.981,3.453-4.023,5.094-6.133c1.337-1.703,2.593-3.464,3.839-5.239c0.883-1.268,1.89-2.415,2.729-3.724    c0.15-0.234,0.22-0.498,0.345-0.743c10.294-16.092,16.519-34.447,18.139-53.482c0.397-4.815-1.233-9.578-4.496-13.141    c-3.231-3.504-7.779-5.501-12.546-5.508H34.529c-4.767,0.007-9.314,2.004-12.546,5.508c-3.265,3.566-4.894,8.332-4.496,13.15    c1.62,19.034,7.845,37.388,18.14,53.478c0.125,0.243,0.194,0.506,0.343,0.738c0.828,1.291,1.823,2.423,2.694,3.675    c1.265,1.803,2.541,3.591,3.9,5.32c1.625,2.085,3.295,4.106,5.039,6.066c0.67,0.747,1.379,1.455,2.067,2.185    c6.815,7.293,14.522,13.699,22.937,19.068c0.368,0.235,0.736,0.469,1.106,0.7c7.956,4.951,16.473,8.937,25.371,11.876    c1.71,0.574,3.406,1.176,5.147,1.673c2.026,0.568,4.072,1.041,6.133,1.503c2.595,0.592,5.217,1.085,7.867,1.503    c1.624,0.251,3.234,0.528,4.875,0.712c1.621,0.186,3.254,0.313,4.893,0.432v179.613H8.533c-4.713,0-8.533,3.82-8.533,8.533    S3.82,512,8.533,512h494.933c4.713,0,8.533-3.82,8.533-8.533S508.18,494.933,503.467,494.933z M48.115,247.467    C40.45,234.44,35.808,219.86,34.529,204.8h204.008l0.033,0.158c-1.29,15.006-5.929,29.532-13.576,42.508H48.115z M126.253,298.121    c-1.664-0.17-3.29-0.47-4.931-0.72c-1.625-0.243-3.255-0.46-4.859-0.779c-2.232-0.452-4.425-1.021-6.606-1.619    c-0.882-0.238-1.771-0.456-2.644-0.717c-2.587-0.785-5.133-1.669-7.636-2.652c-0.344-0.133-0.69-0.263-1.033-0.401    c-14.537-5.908-27.543-15.038-38.04-26.701h152.09c-10.502,11.657-23.509,20.783-38.044,26.692    c-0.363,0.146-0.73,0.283-1.095,0.424c-2.489,0.976-5.021,1.854-7.596,2.637c-0.876,0.262-1.766,0.48-2.651,0.718    c-2.182,0.598-4.375,1.166-6.608,1.619c-1.595,0.318-3.218,0.533-4.833,0.775c-1.648,0.252-3.283,0.553-4.954,0.724    c-3.395,0.34-6.82,0.544-10.279,0.544C133.075,298.667,129.648,298.461,126.253,298.121z M384,25.6    c0.005-4.711,3.823-8.529,8.533-8.533H409.6c4.711,0.005,8.529,3.822,8.533,8.533v8.533H384V25.6z M369.251,190.221    c0.606-2.649,1.228-5.293,1.784-7.961c0.579-2.775,1.097-5.554,1.627-8.34c0.374-1.973,0.756-3.939,1.107-5.911    c0.506-2.846,0.978-5.676,1.435-8.516c0.303-1.88,0.594-3.747,0.877-5.62c0.433-2.872,0.858-5.724,1.246-8.573    c0.234-1.715,0.441-3.399,0.658-5.1c0.785-6.143,1.479-12.179,2.081-18.108c0.084-0.837,0.188-1.704,0.268-2.535    c0.237-2.444,0.438-4.802,0.646-7.19c0.188-2.139,0.374-4.265,0.54-6.344c0.16-2.032,0.308-4.01,0.449-5.989    c0.18-2.509,0.342-4.938,0.492-7.333c0.094-1.517,0.194-3.035,0.278-4.512c0.219-3.844,0.411-7.56,0.561-11.022    c0.193-4.581-3.264-8.498-7.834-8.875V51.2h51.2v17.092c-4.57,0.377-8.027,4.294-7.834,8.875c0.15,3.459,0.342,7.173,0.561,11.015    c0.084,1.486,0.184,3.015,0.279,4.541c0.15,2.385,0.311,4.802,0.49,7.299c0.141,1.98,0.289,3.957,0.449,5.99    c0.167,2.101,0.357,4.249,0.546,6.41c0.206,2.36,0.403,4.688,0.638,7.102c0.116,1.188,0.26,2.423,0.383,3.625    c0.559,5.469,1.2,11.033,1.923,16.692c0.236,1.855,0.462,3.694,0.718,5.565c0.373,2.738,0.781,5.478,1.196,8.239    c0.304,2.023,0.62,4.042,0.948,6.075c0.434,2.691,0.881,5.37,1.358,8.066c0.399,2.257,0.835,4.507,1.267,6.765    c0.479,2.503,0.941,5,1.46,7.493c0.928,4.461,1.922,8.897,2.982,13.307c0.073,0.303,0.131,0.613,0.205,0.916h-66.34    C368.385,194.27,368.791,192.233,369.251,190.221z M350.852,246.214c0.882-1.879,1.754-3.765,2.59-5.708    c0.767-1.769,1.505-3.614,2.243-5.458c0.592-1.489,1.201-2.955,1.768-4.474c1.189-3.159,2.331-6.436,3.441-9.795    c0.241-0.733,0.47-1.475,0.706-2.214c0.558-1.738,1.131-3.442,1.668-5.231h75.6c0.461,1.535,0.955,2.992,1.431,4.49    c0.35,1.105,0.693,2.213,1.054,3.306c0.868,2.613,1.766,5.148,2.682,7.641c0.994,2.725,2.041,5.377,3.112,8.004    c0.465,1.133,0.92,2.294,1.396,3.398c0.937,2.191,1.917,4.315,2.913,6.423c0.134,0.283,0.26,0.591,0.395,0.872H350.283    C350.478,247.063,350.659,246.622,350.852,246.214z M474.638,372.533c-0.533,3.383-11.9,76.783-0.017,122.4H327.513    c11.879-45.617,0.517-119.033-0.046-122.575c-7.381-36.452-2.639-74.318,13.503-107.825h120.194    C477.405,298.073,482.141,336.031,474.638,372.533z" fill="#ffffff"/>
	</g>
</g>
<g>
</g>
<g>
</g>
<g>
</g>
<g>
</g>
<g>
</g>
<g>
</g>
<g>
</g>
<g>
</g>
<g>
</g>
<g>
</g>
<g>
</g>
<g>
</g>
<g>
</g>
<g>
</g>
<g>
</g>
</svg>
