<?xml version="1.0"?>
<svg xmlns="http://www.w3.org/2000/svg" xmlns:xlink="http://www.w3.org/1999/xlink" version="1.1" id="Capa_1" x="0px" y="0px" viewBox="0 0 496 496" style="enable-background:new 0 0 496 496;" xml:space="preserve" width="512px" height="512px"><g><path style="fill:#F0BC5E;" d="M332.92,256.524L288,270.828v96c0,4.416-3.584,8-8,8s-8-3.584-8-8v-88c0-4.424-3.576-8-8-8h-32  c-4.424,0-8,3.576-8,8v88c0,4.416-3.584,8-8,8s-8-3.584-8-8v-88c0-4.424-3.576-8-8-8h-32c-4.424,0-8,3.576-8,8v111.528  c0,12.88,6.256,25.056,16.752,32.544l29.2,20.856C212.24,448.268,216,455.564,216,463.3v23.528c0,4.424,3.576,8,8,8h48  c4.424,0,8-3.576,8-8V463.3c0-7.736,3.76-15.032,10.048-19.528l29.2-20.856c10.496-7.504,16.752-19.672,16.752-32.56V262.828  C336,260.364,334.864,258.036,332.92,256.524z" data-original="#F0BC5E"/><polygon points="80,134.828 64,134.828 64,150.828 48,150.828 48,166.828 64,166.828 64,182.828 80,182.828 80,166.828 96,166.828   96,150.828 80,150.828 " data-original="#000000"/><rect x="177.358" y="198.837" transform="matrix(-0.7071 0.7071 -0.7071 -0.7071 487.6533 211.6819)" width="45.256" height="16" data-original="#000000"/><rect x="217.363" y="206.826" transform="matrix(-0.7071 0.7071 -0.7071 -0.7071 561.5947 197.032)" width="45.256" height="16" data-original="#000000"/><rect x="265.36" y="206.805" transform="matrix(-0.7071 0.7071 -0.7071 -0.7071 643.5157 163.0577)" width="45.256" height="16" data-original="#000000"/><path d="M298.344,108.484l11.312-11.312l-8-8C298.008,85.524,296,80.676,296,75.516V74.14c0-5.16,2.008-10.008,5.656-13.656  C308.328,53.82,312,44.956,312,35.516V34.14c0-9.44-3.672-18.304-10.344-24.968l-8-8l-11.312,11.312l8,8  C293.992,24.132,296,28.98,296,34.14v1.376c0,5.16-2.008,10.008-5.656,13.656C283.672,55.836,280,64.7,280,74.14v1.376  c0,9.44,3.672,18.304,10.344,24.968L298.344,108.484z" data-original="#000000"/><path d="M338.344,84.484l11.312-11.304l-3.76-3.768C344.672,68.18,344,66.564,344,64.828v-1.056c0-2.472,1.368-4.688,3.576-5.792  C355.24,54.156,360,46.452,360,37.884v-1.056c0-6.008-2.344-11.656-6.584-15.888l-3.76-3.76l-11.312,11.304l3.76,3.768  c1.224,1.224,1.896,2.84,1.896,4.576v1.056c0,2.472-1.368,4.688-3.576,5.792C332.76,47.5,328,55.204,328,63.772v1.056  c0,6.008,2.344,11.656,6.584,15.888L338.344,84.484z" data-original="#000000"/><path d="M242.344,84.484l11.312-11.304l-3.76-3.768C248.672,68.18,248,66.564,248,64.828v-1.056c0-2.472,1.368-4.688,3.576-5.792  C259.24,54.156,264,46.452,264,37.884v-1.056c0-6.008-2.344-11.656-6.584-15.888l-3.76-3.76l-11.312,11.304l3.76,3.768  c1.224,1.224,1.896,2.84,1.896,4.576v1.056c0,2.472-1.368,4.688-3.576,5.792C236.76,47.5,232,55.204,232,63.772v1.056  c0,6.008,2.344,11.656,6.584,15.888L242.344,84.484z" data-original="#000000"/><rect x="128" y="478.828" width="240" height="16" data-original="#000000"/><path d="M478.168,6.828L448,49.068l-30.168-42.24H400V62.86c0,19.68-4.648,39.384-13.456,56.976  c-14.48,28.992-43.616,46.992-76.024,46.992c-22.704,0-44.056-8.84-60.112-24.896l-18.248-18.256  C172.28,63.804,92.672,30.828,8,30.828H0V73.98c0,56.848,22.144,110.296,62.344,150.504c40.192,40.2,93.648,62.344,150.504,62.344  h34.84c67.44,0,129.36-33.656,166.04-90.12C464.52,165.46,496,109.244,496,49.532V6.828H478.168z M247.696,270.828h-34.84  c-44.624,0-86.936-14.792-121.456-41.976c43.664-8.992,76.6-47.736,76.6-94.024c0-2.936-0.136-5.84-0.392-8.704l-15.936,1.416  c0.208,2.4,0.328,4.832,0.328,7.288c0,43.024-34.168,78.128-76.776,79.84c-0.52-0.504-1.056-0.984-1.568-1.496  C36.48,175.988,16,126.556,16,73.98V46.94c34.96,0.904,68.888,7.8,100.68,20.088c11.448,7.528,21.144,19.416,28.056,34.44  l14.528-6.688c-1.672-3.632-3.528-7.08-5.48-10.4c24.296,13.488,46.872,30.432,67.064,50.624l18.248,18.256  c19.08,19.064,44.448,29.568,71.424,29.568c24.6,0,47.576-8.76,65.48-24.04v0.04h24v29.544  C366.256,240.02,309.512,270.828,247.696,270.828z M480,49.532c0,49.856-24.232,96.96-64,126.264v-32.968h-25.008  c3.704-4.912,7.04-10.176,9.872-15.832C410.768,107.196,416,85.02,416,62.86V31.796l32,44.792l32-44.792V49.532z" data-original="#000000"/></g> </svg>
