<?xml version="1.0" encoding="iso-8859-1"?>
<!-- Generator: Adobe Illustrator 19.0.0, SVG Export Plug-In . SVG Version: 6.00 Build 0)  -->
<svg xmlns="http://www.w3.org/2000/svg" xmlns:xlink="http://www.w3.org/1999/xlink" version="1.1" id="Capa_1" x="0px" y="0px" viewBox="0 0 499.67 499.67" style="enable-background:new 0 0 499.67 499.67;" xml:space="preserve" width="512px" height="512px">
<g>
	<path d="M494.948,484.528c-5.625-2.583-11.053-6.086-16.794-9.794c-12.419-8.018-25.26-16.308-41.77-16.308   c-12.736,0-23.698,6.903-34.295,13.579c-9.632,6.067-18.732,11.8-28.036,11.8c-9.271,0-18.794-5.668-28.874-11.67   c-3.139-1.868-6.313-3.739-9.536-5.489c21.091-26.718,31.576-59.823,29.612-93.952c-0.142-2.508-1.468-4.8-3.566-6.177   c-2.106-1.381-4.729-1.678-7.089-0.811c-22.38,8.239-44.183,14.544-65.96,19.134l35.799-74.613   c1.599-3.337,0.681-7.337-2.215-9.639c-2.801-2.226-5.632-4.459-8.495-6.714c-48.655-38.339-107.991-85.169-158.585-233.558   l60.166-28.407c2.237-1.056,3.443-3.525,2.9-5.938c-0.543-2.415-2.685-4.131-5.158-4.131l-70.136,0.02   c-1.556-5.256-3.105-10.59-4.639-16.069c-1.024-3.652-4.466-6.064-8.27-5.767c-3.781,0.302-6.82,3.24-7.246,7.009   c-7.846,69.049-16.574,246.813,68.922,416.945c-9.831,4.278-19.934,8.326-30.437,12.104c-2.033,0.73-3.679,2.259-4.557,4.231   c-0.882,1.973-0.918,4.219-0.106,6.219c2.947,7.245,6.612,12.615,10.572,16.939c-5.319,2.544-10.376,5.73-15.344,8.895   c-9.228,5.883-17.945,11.439-26.765,11.439c-8.987,0-18.029-5.689-27.599-11.712c-10.678-6.718-21.719-13.667-34.459-13.667   c-16.47,0-29.239,8.297-41.592,16.321c-5.705,3.707-11.097,7.208-16.685,9.789c-3.974,1.838-5.712,6.55-3.872,10.526   c1.832,3.982,6.55,5.71,10.525,3.874c6.623-3.06,12.747-7.04,18.674-10.889c10.893-7.077,21.18-13.76,32.951-13.76   c8.164,0,16.834,5.455,26.011,11.231c11.053,6.954,22.484,14.147,36.047,14.147c13.446,0,24.554-7.078,35.293-13.925   c9.239-5.889,17.967-11.454,26.816-11.454c8.918,0,17.818,5.614,27.239,11.557c10.772,6.796,21.909,13.821,35.093,13.821   c13.333,0,24.229-7.421,33.843-13.969c8.612-5.867,16.747-11.41,25.53-11.41c8.929,0,18.291,5.574,28.204,11.477   c11.483,6.834,23.355,13.902,36.991,13.902c13.883,0,25.894-7.565,36.492-14.24c9.093-5.729,17.683-11.138,25.84-11.138   c11.836,0,22.197,6.689,33.166,13.77c5.96,3.849,12.124,7.827,18.776,10.885c1.075,0.492,2.2,0.725,3.308,0.725   c3.002,0,5.876-1.714,7.209-4.623C500.671,491.066,498.926,486.357,494.948,484.528z M189.455,32.422l-37.683,17.792   c-1.895-5.774-3.775-11.704-5.642-17.778L189.455,32.422z M135.069,50.261c53.075,164.852,116.86,215.111,168.841,256.072   c1.166,0.918,2.328,1.834,3.486,2.747l-38.1,79.405c-4.44,0.725-8.884,1.394-13.339,1.978c-0.049,0.006-0.092,0.026-0.141,0.033   c-0.277,0.041-0.548,0.122-0.823,0.193c-0.242,0.063-0.49,0.112-0.721,0.197c-0.209,0.076-0.408,0.187-0.613,0.282   c-0.277,0.129-0.556,0.251-0.814,0.409c-0.04,0.024-0.084,0.037-0.123,0.062c-14.872,9.485-30.34,18.018-46.61,25.774   C135.998,278.247,130.481,133.547,135.069,50.261z M274.394,472.588c-8.466,5.769-16.466,11.217-24.911,11.217   c-8.601,0-17.359-5.525-26.63-11.375c-10.911-6.883-22.197-14.004-35.701-14.004c-0.629,0-1.227,0.089-1.846,0.119   c-4.042-3.094-7.446-6.316-10.256-10.65c30.783-11.648,58.58-25.434,84.71-41.956c29.954-4.047,59.456-11.125,89.815-21.599   c-0.798,27.816-10.963,54.356-29.149,75.832c-3.739-1.062-7.575-1.745-11.568-1.745   C295.185,458.426,284.139,465.951,274.394,472.588z" fill="#ffffff"/>
	<path d="M350.489,69.935c13.832,1.457,24.084,10.095,29.067,17.69c0.991,1.51,2.667,2.388,4.423,2.388   c0.375,0,0.758-0.04,1.133-0.124c2.142-0.47,3.774-2.215,4.095-4.383c3.224-21.596,14.193-38.942,34.514-54.59   c2.317-1.781,2.747-5.102,0.965-7.415c-1.781-2.31-5.104-2.741-7.413-0.964c-18.907,14.556-30.838,31.193-36.233,50.61   c-7.089-6.656-17.151-12.435-29.443-13.73c-2.903-0.304-5.505,1.8-5.811,4.705C345.48,67.026,347.586,69.629,350.489,69.935z" fill="#ffffff"/>
	<path d="M449.097,123.964c8.04,0.845,13.996,5.862,16.889,10.275c0.991,1.51,2.667,2.388,4.423,2.388   c0.375,0,0.758-0.04,1.133-0.124c2.142-0.47,3.774-2.215,4.095-4.384c1.953-13.075,8.627-23.607,21.013-33.142   c2.313-1.781,2.743-5.102,0.962-7.415c-1.781-2.315-5.1-2.743-7.417-0.964c-11.319,8.718-18.79,18.605-22.634,30.018   c-4.521-3.563-10.404-6.437-17.355-7.169c-2.918-0.319-5.508,1.801-5.811,4.705C444.088,121.057,446.194,123.658,449.097,123.964z" fill="#ffffff"/>
</g>
<g>
</g>
<g>
</g>
<g>
</g>
<g>
</g>
<g>
</g>
<g>
</g>
<g>
</g>
<g>
</g>
<g>
</g>
<g>
</g>
<g>
</g>
<g>
</g>
<g>
</g>
<g>
</g>
<g>
</g>
</svg>
