<?xml version="1.0"?>
<svg xmlns="http://www.w3.org/2000/svg" xmlns:xlink="http://www.w3.org/1999/xlink" version="1.1" id="Capa_1" x="0px" y="0px" viewBox="0 0 496 496" style="enable-background:new 0 0 496 496;" xml:space="preserve" width="512px" height="512px" class=""><g><g>
	<circle style="fill:#FFA04F" cx="248" cy="168" r="40" data-original="#FFA64D" class="" data-old_color="#FFA64D"/>
	<rect x="192" y="272" style="fill:#FFA04F" width="112" height="96" data-original="#FFA64D" class="" data-old_color="#FFA64D"/>
</g><g>
	<path style="fill:#CACACA" d="M464,239.68c17.888-1.624,32-16.536,32-34.84c0-10.56-4.68-20.464-12.84-27.168L281.44,11.976   C272.048,4.248,260.168,0,248,0s-24.048,4.248-33.44,11.976L144,69.936V48h8c13.232,0,24-10.768,24-24S165.232,0,152,0H40   C26.768,0,16,10.768,16,24s10.768,24,24,24h8v100.792l-35.16,28.88C4.68,184.384,0,194.28,0,204.84   c0,18.304,14.112,33.208,32,34.84V384H0v112h56h8h48h48h16h144h16h48h48h8h56V384h-32V239.68z M32,24c0-4.416,3.592-8,8-8h112   c4.408,0,8,3.584,8,8s-3.592,8-8,8H40C35.592,32,32,28.416,32,24z M64,48h64v35.08l-64,52.568V48z M48,238.464   c4.6-1.344,8.952-3.512,12.672-6.616L238.968,83.264c5.064-4.208,13-4.216,18.048,0l160.872,134.064l10.24-12.296L267.264,70.968   c-10.784-8.976-27.704-8.984-38.528,0L50.432,219.552C47,222.424,42.64,224,38.168,224H35.16C24.592,224,16,215.408,16,204.84   c0-5.76,2.552-11.16,7-14.816L224.72,24.336c13.08-10.752,33.472-10.752,46.56,0l201.712,165.696   c4.456,3.656,7.008,9.056,7.008,14.808c0,10.568-8.592,19.16-19.16,19.16h-3c-4.472,0-8.832-1.576-12.264-4.448l-8.416-7.016   l-10.24,12.296l8.416,7.016c3.728,3.104,8.072,5.264,12.672,6.616V384h-16v32h-48v-32h-60.176c-12.936-19.28-34.92-32-59.824-32   h-32c-24.904,0-46.896,12.72-59.824,32H112v32H64v-32H48V238.464z M432,448h-48v-16h48V448z M112,448H64v-16h48V448z M48,480H16   v-80h32v16v48V480z M64,480v-16h48v16H64z M128,480v-16v-48v-16h32v24v56H128z M256,480v-16h-16v16h-64v-56   c0-30.872,25.12-56,56-56h8v80h16v-80h8c30.88,0,56,25.128,56,56v56H256z M336,480v-56v-24h32v16v48v16H336z M384,480v-16h48v16   H384z M480,480h-32v-16v-48v-16h32V480z" data-original="#333333" class="active-path" data-old_color="#cacaca"/>
	<path style="fill:#CACACA" d="M248,216c26.472,0,48-21.528,48-48s-21.528-48-48-48s-48,21.528-48,48S221.528,216,248,216z    M217.136,176H240v22.864C228.808,195.952,220.048,187.192,217.136,176z M256,198.864V176h22.864   C275.952,187.192,267.192,195.952,256,198.864z M278.864,160H256v-22.864C267.192,140.048,275.952,148.808,278.864,160z    M240,137.136V160h-22.864C220.048,148.808,228.808,140.048,240,137.136z" data-original="#333333" class="active-path" data-old_color="#cacaca"/>
	<rect x="208" y="408" style="fill:#CACACA" width="16" height="16" data-original="#333333" class="active-path" data-old_color="#cacaca"/>
	<rect x="272" y="408" style="fill:#CACACA" width="16" height="16" data-original="#333333" class="active-path" data-old_color="#cacaca"/>
	<rect x="208" y="320" style="fill:#CACACA" width="16" height="16" data-original="#333333" class="active-path" data-old_color="#cacaca"/>
	<path style="fill:#CACACA" d="M416,256h-80v80h80V256z M400,288h-16v-16h16V288z M368,272v16h-16v-16H368z M352,304h16v16h-16V304   z M384,320v-16h16v16H384z" data-original="#333333" class="active-path" data-old_color="#cacaca"/>
	<path style="fill:#CACACA" d="M160,256H80v80h80V256z M144,288h-16v-16h16V288z M112,272v16H96v-16H112z M96,304h16v16H96V304z    M128,320v-16h16v16H128z" data-original="#333333" class="active-path" data-old_color="#cacaca"/>
</g></g> </svg>
