<svg id="Camada_1" data-name="Camada 1" xmlns="http://www.w3.org/2000/svg" viewBox="0 0 2994 2914.69"><defs><style>.cls-1{fill:#3e3e3e;}</style></defs><title>anuncio-passeio</title><path class="cls-1" d="M351.89,1465.36v-2c0-.68.33-69.63,29.31-185.56,17-68,40.41-138.76,69.57-210.18,36.43-89.27,82-179.9,135.43-269.39S697.57,630.36,758.34,565.36c48.64-52,99.21-95.68,150.31-129.73,87.14-58.07,146.52-68.22,147.11-68.32l3.09-.5-.84,3c-.19.68-19.25,69.26-38.07,180.16-17.37,102.34-38.07,262.67-38.07,445.31,0,179.71,20.69,297.21,38,364.14,18.76,72.34,37.67,102.55,37.86,102.85l2,3.07Z" transform="translate(0 -64.4)"/><path class="cls-1" d="M348.89,1468.36v-5c0-.69.34-70,29.4-186.28,17-68.18,40.49-139,69.7-210.59,36.49-89.4,82.13-180.18,135.64-269.79S695.24,628.47,756.15,563.31c48.8-52.2,99.55-96,150.84-130.18,87.68-58.43,145.86-68.38,148.29-68.78l7.73-1.26-2.11,7.54c-.19.68-19.23,69.18-38,180-17.34,102.21-38,262.32-38,444.71,0,179.4,20.64,296.63,37.95,363.39,18.64,71.88,37.3,101.7,37.49,102l4.89,7.68Z" transform="translate(0 -64.4)"/><path class="cls-1" d="M587.92,799.26c-234,391.95-234,664.1-234,664.1h702.19S979.87,1343.6,979.87,995.3c0-353.89,76.21-626,76.21-626S822,407.31,587.92,799.26Z" transform="translate(0 -64.4)"/><path class="cls-1" d="M1535.09,2704.54C1115.93,2470.38,685.93,2481.29,294,2671.77v119.76c381.07-185,789.35-223.19,1197.6,11,397.37,223.15,789.32,223.15,1132.23,65.24V2748C2291.77,2900.48,1927,2916.85,1535.09,2704.54Z" transform="translate(0 -64.4)"/><path class="cls-1" d="M1573.21,2399.69C1154.05,2165.52,718.49,2176.43,332,2367v119.83c375.61-185.1,789.32-217.8,1197.6,10.91,397.4,223.15,783.9,223.15,1126.81,70.69V2443.23C2324.41,2601.08,1959.74,2612,1573.21,2399.69Z" transform="translate(0 -64.4)"/><path class="cls-1" d="M2803.45,2084c-364.74,244.88-789.32,299.27-1230.24,54.39-484.5-277.68-974.45-206.89-1415.3,59.88C98,2230.89,43.61,2263.53,0,2296.23v141.52c65.34-54.49,130.74-98,212.27-141.52,419.13-245,860.14-310.28,1306.45-54.46,484.53,277.64,941.68,206.89,1350-59.88,43.58-32.63,87.09-54.39,125.28-87V1953.21C2934.05,1996.86,2879.6,2040.34,2803.45,2084Z" transform="translate(0 -64.4)"/><polygon class="cls-1" points="1551.36 555.19 1551.36 1551.39 2547.56 1551.39 1551.36 555.19"/><path class="cls-1" d="M1573.21,2013.16c168.7,98,332,141.52,489.82,157.82h43.65c244.91,0,440.85-201.4,440.85-446.34h-1105V64.4H1328.17V1724.67h-1105c0,98,32.7,190.55,87.09,255.79C707.65,1790,1143.08,1768.15,1573.21,2013.16Z" transform="translate(0 -64.4)"/><path class="cls-1" d="M1110.51,951.62c0-500.66,108.85-887.22,108.85-887.22s-332,54.42-664.07,609.68-332.1,941.71-332.1,941.71h996.17S1110.51,1447,1110.51,951.62Zm-54.42,511.71H353.89s0-272.12,234-664.1,468.16-430,468.16-430-76.21,272.12-76.21,626C979.87,1343.57,1056.08,1463.33,1056.08,1463.33Z" transform="translate(0 -64.4)"/></svg>