<svg id="Camada_1" data-name="Camada 1" xmlns="http://www.w3.org/2000/svg" viewBox="0 0 2985.83 2188.65"><defs><style>.cls-1{fill:#3e3e3e;}</style></defs><title>anuncio-passeio</title><path class="cls-1" d="M1988.36,1795.77c-116-48.31-526.63-125.62-526.63-251.23s903.48-367.19,903.48-367.19S1558.36,1312.63,1283,1404.43s-140.11,260.9,62.81,352.7,173.93,149.77,173.93,149.77C1485.89,2085.66,476.12,2288.58,2.64,2380.38L708,2960.15c183.59-58,483.15-135.28,1178.88-444.49C2911.17,2051.84,2104.32,1848.92,1988.36,1795.77Z" transform="translate(-2.64 -771.51)"/><path class="cls-1" d="M273.2,1539.71v468.65H466.46V1554.2c178.76-33.82,318.87-188.42,318.87-376.85,0-212.58-173.93-381.68-381.68-381.68S22,969.6,22,1177.35C17.13,1346.45,123.42,1486.56,273.2,1539.71Z" transform="translate(-2.64 -771.51)"/><path class="cls-1" d="M1456.91,1037.24v144.94h58V1037.24c58-14.5,101.46-67.64,101.46-130.45,0-72.47-58-135.28-135.28-135.28-72.47,0-135.28,58-135.28,135.28C1355.44,969.6,1398.93,1022.74,1456.91,1037.24Z" transform="translate(-2.64 -771.51)"/><path class="cls-1" d="M2722.74,1017.91c-144.94,0-265.73,120.79-265.73,265.73,0,125.62,82.13,227.08,198.09,256.07v289.89h135.28V1539.71c116-29,198.09-135.28,198.09-256.07C2988.47,1138.7,2872.52,1017.91,2722.74,1017.91Z" transform="translate(-2.64 -771.51)"/></svg>