<?xml version="1.0"?>
<svg xmlns="http://www.w3.org/2000/svg" xmlns:xlink="http://www.w3.org/1999/xlink" version="1.1" id="Capa_1" x="0px" y="0px" viewBox="0 0 374.233 374.233" style="enable-background:new 0 0 374.233 374.233;" xml:space="preserve" width="512px" height="512px" class=""><g><path d="M368.733,270.185c-3.038,0-5.5,2.463-5.5,5.5v2.93c-60.229-53.665-97.285-126.945-104.661-207.567l-0.457-4.999h-142.04  l-0.457,4.999C108.244,151.65,71.204,224.914,11,278.576v-2.891c0-3.037-2.462-5.5-5.5-5.5s-5.5,2.463-5.5,5.5v27  c0,3.037,2.462,5.5,5.5,5.5s5.5-2.463,5.5-5.5v-9.551c7.528-6.33,14.732-12.943,21.595-19.825v16.706c0,3.037,2.462,5.5,5.5,5.5h302  c3.038,0,5.5-2.463,5.5-5.5v-12.766c5.661,5.488,11.543,10.798,17.638,15.922v9.514c0,3.037,2.462,5.5,5.5,5.5s5.5-2.463,5.5-5.5  v-27C374.233,272.647,371.771,270.185,368.733,270.185z M115.6,284.515H43.595l0-22.792c33.875-37.424,58.399-81.776,72.005-130.148  V284.515z M202.9,284.515h-76.3V131.418c4.316,15.296,9.743,30.277,16.27,44.859c14.868,33.22,35.067,63.508,60.03,90.081V284.515z   M152.91,171.782c-13.463-30.081-22.103-61.923-25.723-94.733h120.927c7.255,68.071,35.028,130.874,79.6,181.438  c-12.551-0.027-116.23-0.046-117.146-0.036C186.607,232.864,167.207,203.725,152.91,171.782z M334.595,284.515H213.9v-15.094  c17.673-0.104,77.01-0.022,120.695,0.081V284.515z" data-original="#000000" class="active-path" data-old_color="#A15A5A" fill="#161616"/></g> </svg>
