<?xml version="1.0"?>
<svg xmlns="http://www.w3.org/2000/svg" height="512px" viewBox="0 0 512 512" width="512px" class=""><g><path d="m421.820312 148.589844c-.648437 0-1.308593-.070313-1.960937-.199219-.628906-.128906-1.257813-.320313-1.871094-.570313-.597656-.25-1.179687-.558593-1.71875-.921874-.550781-.359376-1.058593-.777344-1.519531-1.238282-.460938-.460937-.878906-.96875-1.25-1.519531-.359375-.539063-.671875-1.128906-.921875-1.730469-.25-.601562-.4375-1.230468-.566406-1.871094-.132813-.640624-.191407-1.296874-.191407-1.949218 0-.648438.058594-1.308594.191407-1.957032.128906-.640624.316406-1.261718.566406-1.871093.25-.601563.5625-1.179688.921875-1.722657.371094-.546874.78125-1.058593 1.25-1.519531.460938-.46875.96875-.878906 1.519531-1.25.539063-.359375 1.121094-.667969 1.71875-.917969.613281-.25 1.242188-.441406 1.871094-.570312 1.289063-.261719 2.621094-.261719 3.910156 0 .640625.128906 1.269531.320312 1.871094.570312.609375.25 1.191406.558594 1.730469.917969.550781.371094 1.058594.78125 1.519531 1.25.460937.460938.878906.972657 1.238281 1.519531.359375.542969.671875 1.121094.921875 1.722657.25.609375.4375 1.230469.570313 1.871093.128906.648438.199218 1.308594.199218 1.957032 0 .652344-.070312 1.3125-.199218 1.949218-.132813.640626-.320313 1.273438-.570313 1.871094-.25.601563-.5625 1.191406-.921875 1.730469-.359375.550781-.777344 1.058594-1.238281 1.519531-.460937.460938-.96875.878906-1.519531 1.238282-.539063.363281-1.121094.671874-1.730469.921874-.601563.25-1.230469.441407-1.871094.570313s-1.300781.199219-1.949219.199219zm0 0" data-original="#000000" class="active-path" data-old_color="#935959" fill="#161616"/><path d="m421.820312 395.691406c-.648437 0-1.308593-.070312-1.960937-.199218-.628906-.132813-1.257813-.320313-1.871094-.570313-.597656-.25-1.179687-.5625-1.71875-.921875-.550781-.359375-1.058593-.777344-1.519531-1.238281-.460938-.460938-.878906-.972657-1.25-1.519531-.359375-.542969-.671875-1.121094-.921875-1.730469-.25-.601563-.4375-1.230469-.566406-1.871094-.132813-.640625-.191407-1.300781-.191407-1.949219 0-.652344.058594-1.308594.191407-1.960937.128906-.628907.316406-1.257813.566406-1.871094.25-.597656.5625-1.179687.921875-1.71875.371094-.550781.789062-1.058594 1.25-1.519531.460938-.460938.96875-.878906 1.519531-1.238282.539063-.363281 1.121094-.671874 1.71875-.921874.613281-.25 1.242188-.449219 1.871094-.570313 3.25-.660156 6.699219.410156 9.03125 2.730469.460937.460937.878906.96875 1.238281 1.519531.359375.539063.671875 1.121094.921875 1.71875.25.613281.4375 1.242187.570313 1.871094.128906.652343.199218 1.3125.199218 1.960937 0 .648438-.070312 1.308594-.199218 1.949219-.132813.640625-.320313 1.269531-.570313 1.871094-.25.609375-.5625 1.1875-.921875 1.730469-.359375.546874-.777344 1.058593-1.238281 1.519531-.460937.460937-.96875.878906-1.519531 1.238281-.539063.359375-1.121094.671875-1.730469.921875-.601563.25-1.230469.4375-1.871094.570313-.640625.128906-1.300781.199218-1.949219.199218zm0 0" data-original="#000000" class="active-path" data-old_color="#935959" fill="#161616"/><path d="m502 0h-45.949219c-5.523437 0-10 4.476562-10 10v70.394531c-5.761719-3.285156-12.421875-5.164062-19.515625-5.164062h-229.75v-12.988281c0-26.296876-21.394531-47.6875-47.6875-47.6875h-83.148437v-4.554688c0-5.523438-4.476563-10-10-10h-45.949219c-5.523438 0-10 4.476562-10 10v492c0 5.523438 4.476562 10 10 10h45.949219c5.523437 0 10-4.476562 10-10v-59.804688h380.101562v59.804688c0 5.523438 4.476563 10 10 10h45.949219c5.523438 0 10-4.476562 10-10v-492c0-5.523438-4.476562-10-10-10zm-325.214844 148.585938v26.507812h-110.835937v-26.507812zm-110.835937 133.070312h77.550781c15.265625 0 27.683594 12.421875 27.683594 27.6875v12.988281h-105.234375zm77.550781-20h-77.550781v-66.5625h380.101562v132.402344c-5.761719-3.285156-12.421875-5.164063-19.515625-5.164063h-235.351562v-12.988281c0-26.292969-21.390625-47.6875-47.683594-47.6875zm302.550781-146.910156v60.347656h-249.265625v-26.507812h189.046875c5.523438 0 10-4.476563 10-10 0-5.519532-4.476562-10-10-10h-319.882812v-33.355469h360.585937c10.757813 0 19.515625 8.753906 19.515625 19.515625zm-296.953125-80.191406c15.265625 0 27.6875 12.421874 27.6875 27.6875v12.988281h-110.835937v-40.675781zm-103.148437 457.445312h-25.949219v-472h25.949219zm20-96.308594h105.234375v26.503906h-105.234375zm125.234375 26.503906v-26.503906h189.050781c5.523437 0 10-4.480468 10-10 0-5.523437-4.476563-10-10-10h-314.285156v-33.359375h360.585937c10.757813 0 19.515625 8.753907 19.515625 19.515625v60.347656zm300.816406 69.804688h-25.949219v-472h25.949219zm0 0" data-original="#000000" class="active-path" data-old_color="#935959" fill="#161616"/></g> </svg>
