<?xml version="1.0" encoding="iso-8859-1"?>
<!-- Generator: Adobe Illustrator 19.0.0, SVG Export Plug-In . SVG Version: 6.00 Build 0)  -->
<svg version="1.1" id="Capa_1" xmlns="http://www.w3.org/2000/svg" xmlns:xlink="http://www.w3.org/1999/xlink" x="0px" y="0px"
	 viewBox="0 0 512 512" style="enable-background:new 0 0 512 512;" xml:space="preserve">
<g>
	<g>
		<path d="M416,128c-5.888,0-10.667,4.779-10.667,10.667c0,88.235-71.765,160-160,160s-160-71.765-160-160
			c0-5.888-4.779-10.667-10.667-10.667S64,132.779,64,138.667C64,238.656,145.344,320,245.333,320s181.333-81.344,181.333-181.333
			C426.667,132.779,421.888,128,416,128z"/>
	</g>
</g>
<g>
	<g>
		<path d="M128,426.667c-23.531,0-42.667,19.136-42.667,42.667C85.333,492.864,104.469,512,128,512
			c23.531,0,42.667-19.136,42.667-42.667C170.667,445.803,151.531,426.667,128,426.667z M128,490.667
			c-11.755,0-21.333-9.557-21.333-21.333S116.245,448,128,448c11.755,0,21.333,9.557,21.333,21.333S139.755,490.667,128,490.667z"/>
	</g>
</g>
<g>
	<g>
		<path d="M173.227,288.32c-5.76-1.408-11.52,2.027-12.928,7.765l-34.901,139.648c-1.429,5.696,2.048,11.499,7.765,12.928
			c0.875,0.213,1.749,0.32,2.603,0.32c4.779,0,9.131-3.221,10.325-8.085l34.901-139.648
			C182.421,295.552,178.944,289.749,173.227,288.32z"/>
	</g>
</g>
<g>
	<g>
		<path d="M383.659,498.624l-53.333-202.667c-1.493-5.696-7.317-9.109-13.035-7.595c-5.696,1.493-9.088,7.317-7.595,13.013
			l53.333,202.667c1.259,4.8,5.568,7.957,10.304,7.957c0.896,0,1.792-0.107,2.731-0.363
			C381.76,510.144,385.152,504.32,383.659,498.624z"/>
	</g>
</g>
<g>
	<g>
		<path d="M341.333,384h-192c-5.888,0-10.667,4.779-10.667,10.667s4.779,10.667,10.667,10.667h192
			c5.888,0,10.667-4.779,10.667-10.667S347.221,384,341.333,384z"/>
	</g>
</g>
<g>
	<g>
		<path d="M437.333,128h-384c-5.888,0-10.667,4.779-10.667,10.667s4.779,10.667,10.667,10.667h384
			c5.888,0,10.667-4.779,10.667-10.667S443.221,128,437.333,128z"/>
	</g>
</g>
<g>
	<g>
		<path d="M458.667,192h-53.333c-5.888,0-10.667,4.779-10.667,10.667s4.779,10.667,10.667,10.667h53.333
			c5.888,0,10.667-4.779,10.667-10.667S464.555,192,458.667,192z"/>
	</g>
</g>
<g>
	<g>
		<path d="M180.203,48.555c-0.085-0.171-9.536-19.413-9.536-37.888C170.667,4.779,165.888,0,160,0s-10.667,4.779-10.667,10.667
			c0,23.616,11.307,46.485,11.797,47.445c0.107,0.171,9.536,19.328,9.536,37.888c0,5.888,4.779,10.667,10.667,10.667
			S192,101.888,192,96C192,72.299,180.672,49.493,180.203,48.555z"/>
	</g>
</g>
<g>
	<g>
		<path d="M244.203,48.555c-0.085-0.171-9.536-19.413-9.536-37.888C234.667,4.779,229.888,0,224,0s-10.667,4.779-10.667,10.667
			c0,23.616,11.307,46.485,11.797,47.445c0.107,0.171,9.536,19.328,9.536,37.888c0,5.888,4.779,10.667,10.667,10.667
			S256,101.888,256,96C256,72.299,244.672,49.493,244.203,48.555z"/>
	</g>
</g>
<g>
	<g>
		<path d="M308.203,48.555c-0.085-0.171-9.536-19.413-9.536-37.888C298.667,4.779,293.888,0,288,0s-10.667,4.779-10.667,10.667
			c0,23.616,11.307,46.485,11.797,47.445c0.107,0.171,9.536,19.328,9.536,37.888c0,5.888,4.779,10.667,10.667,10.667
			S320,101.888,320,96C320,72.299,308.672,49.493,308.203,48.555z"/>
	</g>
</g>
<g>
</g>
<g>
</g>
<g>
</g>
<g>
</g>
<g>
</g>
<g>
</g>
<g>
</g>
<g>
</g>
<g>
</g>
<g>
</g>
<g>
</g>
<g>
</g>
<g>
</g>
<g>
</g>
<g>
</g>
</svg>
