<?xml version="1.0" encoding="iso-8859-1"?>
<!-- Generator: Adobe Illustrator 19.0.0, SVG Export Plug-In . SVG Version: 6.00 Build 0)  -->
<svg xmlns="http://www.w3.org/2000/svg" xmlns:xlink="http://www.w3.org/1999/xlink" version="1.1" id="Capa_1" x="0px" y="0px" viewBox="0 0 512 512" style="enable-background:new 0 0 512 512;" xml:space="preserve" width="512px" height="512px">
<g>
	<g>
		<path d="M506.777,247.884c-27.499-42.737-59.722-75.928-95.772-98.646c-26.21-16.519-53.585-27.008-81.702-31.358    c-21-49.329-69.471-81.864-123.452-81.864h-14.999v111.225c-1.077,0.656-2.152,1.321-3.225,1.997    c-18.957,11.946-36.853,26.792-53.563,44.396c-9.177-17.614-22.204-33.229-38.045-45.293    c-23.477-17.88-51.493-27.331-81.02-27.331H0v14.999c0,30.53,10.427,60.45,29.362,84.247C41.213,235.15,56.11,247.325,72.81,256    c-16.7,8.675-31.597,20.85-43.448,35.744C10.427,315.541,0,345.461,0,375.991v14.999h14.999c29.527,0,57.543-9.451,81.02-27.331    c15.841-12.064,28.868-27.68,38.045-45.293c16.71,17.603,34.607,32.45,53.563,44.396c1.073,0.676,2.148,1.341,3.225,1.997v111.225    h14.999c53.982,0,102.452-32.535,123.453-81.864c28.117-4.351,55.492-14.84,81.701-31.358    c36.05-22.719,68.273-55.909,95.772-98.646l5.223-8.115L506.777,247.884z M220.85,67.103    c30.528,4.464,57.473,22.374,73.615,48.534c-25.113,0.618-49.747,6.029-73.615,16.152V67.103z M31.238,359.691    c5.889-38.353,32.303-70.324,69.059-82.979c3.983,5.715,8.056,11.239,12.219,16.574C99.23,328.396,67.777,353.802,31.238,359.691z     M100.297,235.286c-36.756-12.655-63.17-44.625-69.059-82.979c36.539,5.89,67.993,31.295,81.278,66.405    C108.354,224.046,104.279,229.571,100.297,235.286z M220.85,444.896V380.21c23.867,10.124,48.502,15.535,73.615,16.152    C278.323,422.521,251.378,440.433,220.85,444.896z M299.316,366.433C233.447,366.431,170.934,327.308,122.451,256    c48.482-71.308,110.996-110.431,176.865-110.431c12.836,0,25.543,1.493,38.045,4.413c-18.099,27.053-28.997,58.415-31.566,91.02    h-30.338V271h30.338c2.569,32.605,13.467,63.967,31.566,91.02C324.86,364.94,312.152,366.433,299.316,366.433z M367.137,352.194    c-20.667-27.625-31.945-61.394-31.945-96.195s11.278-68.57,31.945-96.195c40.304,17.288,77.622,49.977,109.045,96.195    C444.76,302.217,407.442,334.906,367.137,352.194z" fill="#ff5858"/>
	</g>
</g>
<g>
	<g>
		<rect x="394.471" y="241.002" width="29.998" height="29.998" fill="#ff5858"/>
	</g>
</g>
<g>
</g>
<g>
</g>
<g>
</g>
<g>
</g>
<g>
</g>
<g>
</g>
<g>
</g>
<g>
</g>
<g>
</g>
<g>
</g>
<g>
</g>
<g>
</g>
<g>
</g>
<g>
</g>
<g>
</g>
</svg>
