<?xml version="1.0"?>
<svg xmlns="http://www.w3.org/2000/svg" height="512px" viewBox="0 0 496 496" width="512px" class=""><g><path d="m224 96c-32 0-48 16-48 16h-.40625c9.75 48.335938 28.789062 94.574219 56.40625 136h32c26.105469-39.152344 44.59375-82.601562 54.777344-128.054688-31.59375-.59375-63.183594-23.945312-94.777344-23.945312zm0 0" fill="#f0bc5e" data-original="#F0BC5E" class="active-path" style="fill:#FFA04F" data-old_color="#A37147"/><path d="m324.910156 312.511719c1.914063-3.785157 3.089844-7.992188 3.089844-12.511719 0-15.441406-12.558594-28-28-28h-28v-21.664062c41.855469-63.65625 64-137.488282 64-213.71875v-36.617188h-176v36.625c0 76.230469 22.144531 150.0625 64 213.71875v21.65625h-35.3125l-32 32h-92.6875c0-8.824219-7.175781-16-16-16h-32c-8.824219 0-16 7.175781-16 16v128c0 8.824219 7.175781 16 16 16h32c8.824219 0 16-7.175781 16-16h92.695312l24 24h43.304688v24h-72v16h192v-16h-72v-25.472656c2.511719.898437 5.175781 1.472656 7.992188 1.472656h40.007812c13.230469 0 24-10.769531 24-24 0-6.167969-2.40625-11.742188-6.238281-16 3.839843-4.257812 6.238281-9.832031 6.238281-16s-2.40625-11.742188-6.238281-16c3.839843-4.257812 6.238281-9.832031 6.238281-16s-2.40625-11.742188-6.238281-16c3.839843-4.257812 6.238281-9.832031 6.238281-16 0-11.550781-8.199219-21.214844-19.089844-23.488281zm3.089844 23.488281c0 4.40625-3.59375 8-8 8h-40.007812c-4.40625 0-8-3.59375-8-8s3.59375-8 8-8h40.007812c4.40625 0 8 3.59375 8 8zm0 32c0 4.40625-3.59375 8-8 8h-40.007812c-4.40625 0-8-3.59375-8-8s3.59375-8 8-8h40.007812c4.40625 0 8 3.59375 8 8zm0 32c0 4.40625-3.59375 8-8 8h-40.007812c-4.40625 0-8-3.59375-8-8s3.59375-8 8-8h40.007812c4.40625 0 8 3.59375 8 8zm-152-384h144v20.625c0 72.472656-20.839844 142.695312-60.3125 203.375h-23.382812c-39.464844-60.679688-60.304688-130.902344-60.304688-203.375zm64 240h16v16h-16zm-224 176v-128h32l.007812 128zm171.320312 8-24-24h-99.320312v-96h99.3125l32-32h104.6875c6.617188 0 12 5.382812 12 12s-5.382812 12-12 12h-71.3125l-34.34375 34.34375 11.3125 11.3125 18.34375-18.34375v100.6875zm52.679688 40v-152h17.464844c-.898438 2.511719-1.472656 5.183594-1.472656 8 0 6.167969 2.40625 11.742188 6.238281 16-3.839844 4.257812-6.238281 9.832031-6.238281 16s2.40625 11.742188 6.238281 16c-3.839844 4.257812-6.238281 9.832031-6.238281 16s2.40625 11.742188 6.238281 16c-3.839844 4.257812-6.238281 9.832031-6.238281 16 0 .023438.007812.046875.007812.078125v47.921875zm80-40h-40.007812c-4.398438 0-7.96875-3.566406-7.992188-7.960938v-.039062h-.007812c0-4.40625 3.59375-8 8-8h40.007812c4.40625 0 8 3.59375 8 8s-3.59375 8-8 8zm0 0" data-original="#000000" class="" style="fill:#161616" data-old_color="#000000"/><path d="m208 128h16v16h-16zm0 0" data-original="#000000" class="" style="fill:#161616" data-old_color="#000000"/><path d="m264 152h16v16h-16zm0 0" data-original="#000000" class="" style="fill:#161616" data-old_color="#000000"/><path d="m240 200h16v16h-16zm0 0" data-original="#000000" class="" style="fill:#161616" data-old_color="#000000"/><path d="m416 80h16v-20.6875l14.632812 14.632812 11.3125-11.3125-14.632812-14.632812h20.6875v-16h-20.6875l14.632812-14.632812-11.3125-11.3125-14.632812 14.632812v-20.6875h-16v20.6875l-14.632812-14.632812-11.3125 11.3125 14.632812 14.632812h-20.6875v16h20.6875l-14.632812 14.632812 11.3125 11.3125 14.632812-14.632812zm1.375-24-9.375-9.375v-13.25l9.375-9.375h13.25l9.375 9.375v13.25l-9.375 9.375zm0 0" data-original="#000000" class="" style="fill:#161616" data-old_color="#000000"/><path d="m6.054688 206.632812 11.3125 11.3125 14.632812-14.632812v20.6875h16v-20.6875l14.632812 14.632812 11.3125-11.3125-14.632812-14.632812h20.6875v-16h-20.6875l14.632812-14.632812-11.3125-11.3125-14.632812 14.632812v-20.6875h-16v20.6875l-14.632812-14.632812-11.3125 11.3125 14.632812 14.632812h-20.6875v16h20.6875zm17.945312-16.007812v-13.25l9.375-9.375h13.25l9.375 9.375v13.25l-9.375 9.375h-13.25zm0 0" data-original="#000000" class="" style="fill:#161616" data-old_color="#000000"/><path d="m496 336h-20.6875l14.632812-14.632812-11.3125-11.3125-14.632812 14.632812v-20.6875h-16v20.6875l-14.632812-14.632812-11.3125 11.3125 14.632812 14.632812h-20.6875v16h20.6875l-14.632812 14.632812 11.3125 11.3125 14.632812-14.632812v20.6875h16v-20.6875l14.632812 14.632812 11.3125-11.3125-14.632812-14.632812h20.6875zm-24 1.375v13.25l-9.375 9.375h-13.25l-9.375-9.375v-13.25l9.375-9.375h13.25zm0 0" data-original="#000000" class="" style="fill:#161616" data-old_color="#000000"/></g> </svg>
