<?xml version="1.0" encoding="iso-8859-1"?>
<!-- Generator: Adobe Illustrator 17.1.0, SVG Export Plug-In . SVG Version: 6.00 Build 0)  -->
<!DOCTYPE svg PUBLIC "-//W3C//DTD SVG 1.1//EN" "http://www.w3.org/Graphics/SVG/1.1/DTD/svg11.dtd">
<svg xmlns="http://www.w3.org/2000/svg" xmlns:xlink="http://www.w3.org/1999/xlink" version="1.1" id="Capa_1" x="0px" y="0px" viewBox="0 0 368.554 368.554" style="enable-background:new 0 0 368.554 368.554;" xml:space="preserve" width="512px" height="512px">
<g>
	<path d="M124.066,333.763c-4.808,0-7.748-0.191-8.08-0.214c-3.477-0.239-6.331-2.842-6.889-6.283s1.329-6.812,4.552-8.137   c20.627-8.479,28.543-23.165,31.237-35.984C60.478,270.717,0,219.925,0,160.416C0,126.279,19.572,94.4,55.11,70.653   c34.609-23.126,80.481-35.862,129.167-35.862s94.559,12.736,129.167,35.862c35.538,23.747,55.11,55.625,55.11,89.763   c0,34.508-19.943,66.626-56.156,90.438c-3.459,2.276-8.11,1.316-10.387-2.146c-2.276-3.461-1.315-8.111,2.146-10.387   c31.854-20.946,49.397-48.613,49.397-77.904c0-60.999-75.938-110.625-169.277-110.625S15,99.417,15,160.416   c0,25.586,13.85,50.593,39,70.414c25.604,20.179,61.21,33.826,100.262,38.428c4.013,0.473,6.93,4.04,6.597,8.067   c-0.865,10.446-4.569,26.843-18.098,40.428c27.399-2.753,69.05-12.784,85.745-47.476c1.796-3.732,6.277-5.301,10.011-3.506   c3.732,1.796,5.302,6.278,3.506,10.011c-12.596,26.174-38.573,44.284-75.124,52.374   C149.242,333.064,133.248,333.763,124.066,333.763z" fill="#484848"/>
</g>
<g>
</g>
<g>
</g>
<g>
</g>
<g>
</g>
<g>
</g>
<g>
</g>
<g>
</g>
<g>
</g>
<g>
</g>
<g>
</g>
<g>
</g>
<g>
</g>
<g>
</g>
<g>
</g>
<g>
</g>
</svg>
