<?xml version="1.0"?>
<svg xmlns="http://www.w3.org/2000/svg" height="512px" viewBox="0 0 480 480" width="512px" class=""><g><path d="m72 208h336c4.417969 0 8-3.582031 8-8v-56c-.007812-2.136719-.875-4.183594-2.398438-5.679688l-40.335937-40c-1.492187-1.476562-3.503906-2.3125-5.601563-2.320312h-79.664062v-88c0-4.417969-3.582031-8-8-8h-80c-4.417969 0-8 3.582031-8 8v88h-80c-2.15625-.003906-4.21875.859375-5.726562 2.398438l-40 41c-1.460938 1.5-2.277344 3.507812-2.273438 5.601562v55c0 4.417969 3.582031 8 8 8zm136-192h64v80h-64zm-128 132.257812 35.375-36.257812h248.992188l35.632812 35.335938v44.664062h-320zm0 0" data-original="#000000" class="active-path" data-old_color="#913737" fill="#161616"/><path d="m456 304h-72v-24c0-4.417969-3.582031-8-8-8h-112c-4.417969 0-8 3.582031-8 8v24h-32v-24c0-4.417969-3.582031-8-8-8h-112c-4.417969 0-8 3.582031-8 8v24h-72c-13.253906 0-24 10.746094-24 24s10.746094 24 24 24v104c0 13.253906 10.746094 24 24 24h384c13.253906 0 24-10.746094 24-24v-104c13.253906 0 24-10.746094 24-24s-10.746094-24-24-24zm-184-16h96v16h-96zm-160 0h96v16h-96zm328 168c0 4.417969-3.582031 8-8 8h-384c-4.417969 0-8-3.582031-8-8v-104h400zm16-120h-432c-4.417969 0-8-3.582031-8-8s3.582031-8 8-8h432c4.417969 0 8 3.582031 8 8s-3.582031 8-8 8zm0 0" data-original="#000000" class="active-path" data-old_color="#913737" fill="#161616"/></g> </svg>
