<?xml version="1.0"?>
<svg xmlns="http://www.w3.org/2000/svg" xmlns:xlink="http://www.w3.org/1999/xlink" version="1.1" id="Layer_1" x="0px" y="0px" viewBox="0 0 512 512" style="enable-background:new 0 0 512 512;" xml:space="preserve" width="512px" height="512px" class=""><g><g>
	<g>
		<path d="M458.667,85.333H53.333C23.915,85.333,0,109.269,0,138.667v234.667c0,29.397,23.915,53.333,53.333,53.333h405.333    c29.419,0,53.333-23.936,53.333-53.333V138.667C512,109.269,488.085,85.333,458.667,85.333z M490.667,373.333    c0,17.643-14.357,32-32,32H53.333c-17.643,0-32-14.357-32-32V138.667c0-17.643,14.357-32,32-32h405.333c17.643,0,32,14.357,32,32    V373.333z" data-original="#000000" class="active-path" data-old_color="#acacac" fill="#acacac"/>
	</g>
</g><g>
	<g>
		<path d="M160,298.667H74.667c-5.888,0-10.667,4.779-10.667,10.667S68.779,320,74.667,320H160c5.888,0,10.667-4.779,10.667-10.667    S165.888,298.667,160,298.667z" data-original="#000000" class="active-path" data-old_color="#acacac" fill="#acacac"/>
	</g>
</g><g>
	<g>
		<path d="M266.667,341.333h-192C68.779,341.333,64,346.112,64,352c0,5.888,4.779,10.667,10.667,10.667h192    c5.888,0,10.667-4.779,10.667-10.667C277.333,346.112,272.555,341.333,266.667,341.333z" data-original="#000000" class="active-path" data-old_color="#acacac" fill="#acacac"/>
	</g>
</g><g>
	<g>
		<path d="M384,320c0-6.016,2.539-11.627,7.147-15.744c2.219-2.027,3.52-4.907,3.52-7.936c0-3.029-1.301-5.909-3.52-7.936    c-7.915-7.125-18.027-11.051-28.48-11.051C339.136,277.333,320,296.469,320,320s19.136,42.667,42.667,42.667    c10.453,0,20.565-3.925,28.48-11.029c2.219-2.027,3.52-4.907,3.52-7.936s-1.301-5.909-3.52-7.936    C386.539,331.627,384,326.016,384,320z M368.064,340.608c-12.992,3.541-26.731-7.019-26.731-20.608    c0-11.755,9.557-21.333,21.333-21.333c1.835,0,3.648,0.256,5.397,0.725c-3.499,6.272-5.397,13.355-5.397,20.608    S364.565,334.336,368.064,340.608z" data-original="#000000" class="active-path" data-old_color="#acacac" fill="#acacac"/>
	</g>
</g><g>
	<g>
		<path d="M117.333,234.667H74.667c-5.888,0-10.667,4.779-10.667,10.667S68.779,256,74.667,256h42.667    c5.888,0,10.667-4.779,10.667-10.667S123.221,234.667,117.333,234.667z" data-original="#000000" class="active-path" data-old_color="#acacac" fill="#acacac"/>
	</g>
</g><g>
	<g>
		<path d="M202.667,234.667H160c-5.888,0-10.667,4.779-10.667,10.667S154.112,256,160,256h42.667    c5.888,0,10.667-4.779,10.667-10.667S208.555,234.667,202.667,234.667z" data-original="#000000" class="active-path" data-old_color="#acacac" fill="#acacac"/>
	</g>
</g><g>
	<g>
		<path d="M288,234.667h-42.667c-5.888,0-10.667,4.779-10.667,10.667S239.445,256,245.333,256H288    c5.888,0,10.667-4.779,10.667-10.667S293.888,234.667,288,234.667z" data-original="#000000" class="active-path" data-old_color="#acacac" fill="#acacac"/>
	</g>
</g><g>
	<g>
		<path d="M405.333,277.333c-23.531,0-42.667,19.136-42.667,42.667s19.136,42.667,42.667,42.667    C428.864,362.667,448,343.531,448,320C448,296.469,428.864,277.333,405.333,277.333z M405.333,341.333    C393.557,341.333,384,331.755,384,320s9.557-21.333,21.333-21.333s21.333,9.579,21.333,21.333S417.109,341.333,405.333,341.333z" data-original="#000000" class="active-path" data-old_color="#acacac" fill="#acacac"/>
	</g>
</g></g> </svg>
