<?xml version="1.0"?>
<svg xmlns="http://www.w3.org/2000/svg" xmlns:xlink="http://www.w3.org/1999/xlink" version="1.1" id="Capa_1" x="0px" y="0px" viewBox="0 0 441.303 441.303" style="enable-background:new 0 0 441.303 441.303;" xml:space="preserve" width="512px" height="512px"><g><g>
	<path d="M437.396,279.747c-12.595-3.817-25.279-7.29-38.036-10.43l-3.038-13.971c-0.44-2.027-1.985-3.634-3.994-4.155l-18-4.667   c-2.405-0.621-4.941,0.448-6.168,2.618l-6.717,11.884c-4.652-0.891-9.312-1.738-13.98-2.54l-4.526-17.358   c-0.511-1.957-2.054-3.477-4.019-3.956l-23.671-5.773l-1.512-11.595c-0.374-2.871-2.911-4.962-5.8-4.778l-74,4.667   c-1.904,0.12-3.609,1.218-4.507,2.901l-3.974,7.45l-26.462,3.007c-1.741,0.198-3.284,1.214-4.154,2.736l-7.21,12.618   c-15.302,0.673-30.561,1.817-45.76,3.423l-1.853-11.404c-0.224-1.374-1.009-2.592-2.168-3.362   c-1.159-0.771-2.584-1.023-3.939-0.697l-17.391,4.191c-1.936,0.467-3.41,2.038-3.754,4l-1.958,11.206   c-15.719,2.331-31.36,5.163-46.901,8.493l-1.669-9.034l9.712-1.794c2.716-0.502,4.51-3.11,4.009-5.825l-2.635-14.266   c-0.502-2.716-3.116-4.508-5.825-4.009c-2.716,0.501-4.51,3.109-4.009,5.825l1.727,9.349l-4.795,0.886l-2.559-13.854   c-0.502-2.716-3.115-4.509-5.825-4.009c-2.716,0.502-4.51,3.11-4.009,5.825l2.559,13.854l-4.796,0.886l-1.727-9.349   c-0.502-2.716-3.113-4.508-5.825-4.009c-2.716,0.501-4.51,3.109-4.009,5.825l2.635,14.266c0.241,1.304,0.99,2.459,2.082,3.21   c0.84,0.578,1.83,0.881,2.835,0.881c0.303,0,0.606-0.027,0.908-0.083l9.714-1.794l1.734,9.387   c-16.875,3.854-33.628,8.291-50.23,13.321c-2.907,0.881-4.55,3.952-3.669,6.858c0.881,2.907,3.955,4.551,6.858,3.669   c16.209-4.912,32.566-9.249,49.04-13.022l2.299,12.444c0.445,2.409,2.547,4.093,4.911,4.093c0.302,0,0.607-0.027,0.914-0.084   c2.716-0.502,4.51-3.11,4.009-5.825l-2.365-12.803c50.748-10.899,102.578-16.403,154.748-16.403   c72.506,0,144.355,10.632,213.555,31.6c0.531,0.161,1.068,0.238,1.597,0.238c2.36,0,4.542-1.531,5.262-3.907   C441.946,283.698,440.303,280.628,437.396,279.747z M375.657,258.233l10.636,2.757l1.198,5.51   c-4.888-1.119-9.786-2.189-14.694-3.208L375.657,258.233z M335.588,256.54c-5.692-0.884-11.395-1.702-17.107-2.454l-1.588-10.964   l16.229,3.958L335.588,256.54z M122.05,249.51l8.96-2.159l0.908,5.59c-3.572,0.426-7.14,0.883-10.705,1.361L122.05,249.51z    M200.561,247.945l2.446-4.28l26.563-3.018c1.798-0.204,3.38-1.28,4.231-2.876l3.89-7.292l65.804-4.15l3.669,26.357   c-28.652-3.329-57.529-5.01-86.511-5.01C213.949,247.674,207.251,247.766,200.561,247.945z" data-original="#000000" class="active-path" data-old_color="#A92525" fill="#343434"/>
	<path d="M220.652,146.117c22.882,0,41.498-18.616,41.498-41.498s-18.616-41.498-41.498-41.498s-41.498,18.616-41.498,41.498   S197.77,146.117,220.652,146.117z M220.652,74.121c16.816,0,30.498,13.681,30.498,30.498s-13.682,30.498-30.498,30.498   s-30.498-13.681-30.498-30.498S203.835,74.121,220.652,74.121z" data-original="#000000" class="active-path" data-old_color="#A92525" fill="#343434"/>
	<path d="M162.657,368.182h-1.426l3.766-10.669c0.523-1.484,0.318-3.128-0.555-4.438l-5.334-8c-1.13-1.694-3.175-2.534-5.167-2.124   l-28.008,5.76l-2.804-4.273c-1.005-1.529-2.77-2.395-4.585-2.24l-24.666,2c-1.693,0.137-3.201,1.125-4.003,2.622l-11.55,21.361   h-6.043c-2.762,0-5,2.239-5,5s2.238,5,5,5h90.375c2.762,0,5-2.239,5-5S165.418,368.182,162.657,368.182z M125.616,368.182h-10.001   H89.775l7.626-14.237l18.993-1.54l10.353,15.776H125.616z M150.108,368.182h-12.193c-0.055-0.832-0.296-1.663-0.786-2.41   l-5.293-8.065l20.82-4.282l2.079,3.117L150.108,368.182z" data-original="#000000" class="active-path" data-old_color="#A92525" fill="#343434"/>
</g></g> </svg>
