<?xml version="1.0" encoding="iso-8859-1"?>
<!-- Generator: Adobe Illustrator 19.0.0, SVG Export Plug-In . SVG Version: 6.00 Build 0)  -->
<svg xmlns="http://www.w3.org/2000/svg" xmlns:xlink="http://www.w3.org/1999/xlink" version="1.1" id="Capa_1" x="0px" y="0px" viewBox="0 0 508 508" style="enable-background:new 0 0 508 508;" xml:space="preserve" width="512px" height="512px">
<g>
	<g>
		<path d="M449.6,491.7V235.3L254,65.2L58.4,235.3v256.4H1.3V508h505.4v-16.3H449.6z M196.9,491.7v-163H311v163H196.9z M433.3,491.7    h-106V312.4H180.6v179.3h-106v-249L254,86.8l179.3,155.9V491.7z" fill="#FC5658"/>
	</g>
</g>
<g>
	<g>
		<path d="M254,0L148,91.8V2.6H82.8v145.7L4.1,216.6l10.7,12.3L254,21.6l239.2,207.3l10.7-12.3L254,0z M131.7,105.9l-32.6,28.3V18.9    h32.6V105.9z" fill="#FC5658"/>
	</g>
</g>
<g>
	<g>
		<rect x="245.8" y="198.3" width="16.3" height="16.3" fill="#FC5658"/>
	</g>
</g>
<g>
	<g>
		<rect x="278.5" y="198.3" width="16.3" height="16.3" fill="#FC5658"/>
	</g>
</g>
<g>
	<g>
		<rect x="213.2" y="198.3" width="16.3" height="16.3" fill="#FC5658"/>
	</g>
</g>
<g>
</g>
<g>
</g>
<g>
</g>
<g>
</g>
<g>
</g>
<g>
</g>
<g>
</g>
<g>
</g>
<g>
</g>
<g>
</g>
<g>
</g>
<g>
</g>
<g>
</g>
<g>
</g>
<g>
</g>
</svg>
