<?xml version="1.0" encoding="iso-8859-1"?>
<!-- Generator: Adobe Illustrator 18.0.0, SVG Export Plug-In . SVG Version: 6.00 Build 0)  -->
<!DOCTYPE svg PUBLIC "-//W3C//DTD SVG 1.1//EN" "http://www.w3.org/Graphics/SVG/1.1/DTD/svg11.dtd">
<svg xmlns="http://www.w3.org/2000/svg" xmlns:xlink="http://www.w3.org/1999/xlink" version="1.1" id="Capa_1" x="0px" y="0px" viewBox="0 0 50.337 50.337" style="enable-background:new 0 0 50.337 50.337;" xml:space="preserve" width="512px" height="512px">
<path d="M45.297,6c1.657,0,3-1.343,3-3s-1.343-3-3-3H34.176c-1.014,0-1.958,0.512-2.512,1.36  c-1.443,2.211-4.77,7.244-7.171,10.679H4.04c-0.809,0-1.538,0.487-1.848,1.234c-0.31,0.748-0.139,1.607,0.434,2.18l19.042,19.043  v11.841h-6.507c-1.104,0-2,0.896-2,2s0.896,2,2,2h19.015c1.104,0,2-0.896,2-2s-0.896-2-2-2h-6.508V34.496l19.043-19.043  c0.572-0.572,0.743-1.432,0.434-2.18c-0.31-0.747-1.039-1.234-1.848-1.234H31.771C33.338,9.724,34.867,7.412,35.796,6H45.297z" fill="#2198F3"/>
<g>
</g>
<g>
</g>
<g>
</g>
<g>
</g>
<g>
</g>
<g>
</g>
<g>
</g>
<g>
</g>
<g>
</g>
<g>
</g>
<g>
</g>
<g>
</g>
<g>
</g>
<g>
</g>
<g>
</g>
</svg>
