<?xml version="1.0" encoding="iso-8859-1"?>
<!-- Generator: Adobe Illustrator 19.0.0, SVG Export Plug-In . SVG Version: 6.00 Build 0)  -->
<svg xmlns="http://www.w3.org/2000/svg" xmlns:xlink="http://www.w3.org/1999/xlink" version="1.1" id="Layer_1" x="0px" y="0px" viewBox="0 0 469.333 469.333" style="enable-background:new 0 0 469.333 469.333;" xml:space="preserve" width="512px" height="512px">
<g>
	<g>
		<rect x="228.267" y="117.333" width="241.067" height="42.667" fill="#484848"/>
	</g>
</g>
<g>
	<g>
		<rect y="117.333" width="70.4" height="42.667" fill="#484848"/>
	</g>
</g>
<g>
	<g>
		<rect x="398.933" y="309.333" width="70.4" height="42.667" fill="#484848"/>
	</g>
</g>
<g>
	<g>
		<rect y="309.333" width="241.067" height="42.667" fill="#484848"/>
	</g>
</g>
<g>
	<g>
		<path d="M149.333,53.333C102.205,53.333,64,91.538,64,138.667S102.205,224,149.333,224s85.333-38.205,85.333-85.333    S196.462,53.333,149.333,53.333z M149.333,185.387c-25.803,0-46.72-20.917-46.72-46.72s20.917-46.72,46.72-46.72    s46.72,20.917,46.72,46.72S175.136,185.387,149.333,185.387z" fill="#484848"/>
	</g>
</g>
<g>
	<g>
		<path d="M320,245.333c-47.128,0-85.333,38.205-85.333,85.333S272.872,416,320,416c47.128,0,85.333-38.205,85.333-85.333    S367.128,245.333,320,245.333z M320,378.027c-26.156,0-47.36-21.204-47.36-47.36c0-26.156,21.204-47.36,47.36-47.36    c26.156,0,47.36,21.204,47.36,47.36C367.36,356.823,346.156,378.027,320,378.027z" fill="#484848"/>
	</g>
</g>
<g>
</g>
<g>
</g>
<g>
</g>
<g>
</g>
<g>
</g>
<g>
</g>
<g>
</g>
<g>
</g>
<g>
</g>
<g>
</g>
<g>
</g>
<g>
</g>
<g>
</g>
<g>
</g>
<g>
</g>
</svg>
