<?xml version="1.0" encoding="iso-8859-1"?>
<!-- Generator: Adobe Illustrator 18.0.0, SVG Export Plug-In . SVG Version: 6.00 Build 0)  -->
<!DOCTYPE svg PUBLIC "-//W3C//DTD SVG 1.1//EN" "http://www.w3.org/Graphics/SVG/1.1/DTD/svg11.dtd">
<svg xmlns="http://www.w3.org/2000/svg" xmlns:xlink="http://www.w3.org/1999/xlink" version="1.1" id="Capa_1" x="0px" y="0px" viewBox="0 0 414.796 414.796" style="enable-background:new 0 0 414.796 414.796;" xml:space="preserve" width="512px" height="512px">
<g>
	<path d="M143.408,0c-2.209,0-4,1.791-4,4v103.362h-13.267V4c0-2.209-1.791-4-4-4c-2.209,0-4,1.791-4,4v103.362h-12.689V4   c0-2.209-1.791-4-4-4s-4,1.791-4,4v103.362H84.185V4c0-2.209-1.791-4-4-4s-4,1.791-4,4v108.816   c0,18.283,13.852,33.386,31.611,35.381v141.391c-9.099,1.718-16.205,9.198-17.2,18.731l-7.752,74.349   c-0.854,8.188,1.817,16.39,7.328,22.505c5.511,6.115,13.393,9.622,21.624,9.622c8.232,0,16.113-3.507,21.624-9.622   c5.51-6.115,8.181-14.318,7.328-22.505l-7.752-74.349c-0.995-9.532-8.101-17.013-17.2-18.731V148.198   c17.759-1.995,31.612-17.098,31.612-35.381V4C147.408,1.791,145.617,0,143.408,0z M127.477,399.818   c-3.996,4.434-9.712,6.978-15.681,6.978h0c-5.969,0-11.685-2.543-15.681-6.978c-3.188-3.538-5.061-8.041-5.375-12.732h42.112   C132.538,391.777,130.665,396.28,127.477,399.818z M125.039,309.149l7.292,69.937h-41.07l7.292-69.937   c0.71-6.804,6.403-11.934,13.243-11.934C118.636,297.215,124.33,302.346,125.039,309.149z M111.796,140.428L111.796,140.428   c-14.368,0-26.207-11.029-27.496-25.066h54.991C138.003,129.399,126.164,140.428,111.796,140.428z" fill="#D32F2F"/>
	<path d="M338.611,83.688c0-21.979-5.003-42.704-14.087-58.355C315.042,8.997,302.199,0,288.359,0   c-13.84,0-26.683,8.997-36.165,25.332c-9.084,15.651-14.087,36.376-14.087,58.355c0,39.39,16.797,62.681,46.252,64.597v141.304   c-9.099,1.718-16.205,9.198-17.2,18.731l-7.752,74.349c-0.853,8.188,1.817,16.39,7.328,22.505   c5.511,6.115,13.393,9.622,21.624,9.622c8.232,0,16.114-3.507,21.624-9.622c5.51-6.115,8.181-14.318,7.328-22.505l-7.753-74.349   c-0.994-9.533-8.1-17.014-17.2-18.731V148.284C321.814,146.369,338.611,123.077,338.611,83.688z M246.107,83.688   c0-20.591,4.619-39.889,13.006-54.34C267.103,15.582,277.49,8,288.359,8c10.869,0,21.255,7.582,29.246,21.348   c8.387,14.451,13.006,33.749,13.006,54.34c0,36.59-15.005,56.741-42.252,56.741C261.112,140.428,246.107,120.277,246.107,83.688z    M304.04,399.818c-3.996,4.435-9.712,6.978-15.682,6.978c-5.969,0-11.685-2.543-15.681-6.978   c-3.188-3.538-5.061-8.041-5.375-12.732h42.112C309.101,391.777,307.229,396.28,304.04,399.818z M301.602,309.149l7.292,69.937   h-41.07l7.292-69.937c0.709-6.804,6.403-11.934,13.243-11.934C295.199,297.215,300.893,302.346,301.602,309.149z" fill="#D32F2F"/>
</g>
<g>
</g>
<g>
</g>
<g>
</g>
<g>
</g>
<g>
</g>
<g>
</g>
<g>
</g>
<g>
</g>
<g>
</g>
<g>
</g>
<g>
</g>
<g>
</g>
<g>
</g>
<g>
</g>
<g>
</g>
</svg>
