<?xml version="1.0" encoding="iso-8859-1"?>
<!-- Generator: Adobe Illustrator 17.1.0, SVG Export Plug-In . SVG Version: 6.00 Build 0)  -->
<!DOCTYPE svg PUBLIC "-//W3C//DTD SVG 1.1//EN" "http://www.w3.org/Graphics/SVG/1.1/DTD/svg11.dtd">
<svg version="1.1" id="Capa_1" xmlns="http://www.w3.org/2000/svg" xmlns:xlink="http://www.w3.org/1999/xlink" x="0px" y="0px"
	 viewBox="0 0 191.85 191.85" style="enable-background:new 0 0 191.85 191.85;" xml:space="preserve">
<path d="M128.305,191.85h-64.76c-1.178,0-2.196-0.822-2.444-1.974s0.341-2.32,1.415-2.805l30.909-13.961V87.017l-66.23-53.024
	c-0.829-0.664-1.148-1.778-0.796-2.78c0.352-1.001,1.297-1.672,2.359-1.672h57.019L82.114,2.841
	c-0.188-1.368,0.769-2.629,2.137-2.817c1.373-0.189,2.629,0.77,2.816,2.137l3.756,27.38h72.27c1.062,0,2.007,0.67,2.359,1.672
	c0.352,1.002,0.032,2.116-0.796,2.78L98.425,87.017v86.093l30.909,13.961c1.073,0.485,1.663,1.653,1.415,2.805
	S129.483,191.85,128.305,191.85z M75.153,186.85h41.544l-20.772-9.382L75.153,186.85z M62.288,55.683l33.638,26.931l33.638-26.931
	h-26.39c-0.833,3.769-3.511,6.854-7.034,8.254l1.283,7.955c0.22,1.363-0.707,2.646-2.07,2.866c-1.365,0.217-2.646-0.708-2.866-2.07
	l-1.283-7.957c-5.22-0.302-9.522-4.08-10.621-9.048H62.288z M85.803,55.683c0.985,2.385,3.337,4.068,6.074,4.068
	s5.088-1.683,6.074-4.068H85.803z M103.173,50.683h32.622c0.004,0,0.009,0,0.014,0l20.162-16.142H91.509l0.973,7.09
	C97.732,41.903,102.069,45.693,103.173,50.683z M85.804,50.683H97.95c-0.985-2.385-3.336-4.067-6.073-4.067
	S86.789,48.298,85.804,50.683z M56.042,50.683h24.539c0.828-3.745,3.477-6.813,6.967-8.227l-1.086-7.915H35.88L56.042,50.683z"/>
<g>
</g>
<g>
</g>
<g>
</g>
<g>
</g>
<g>
</g>
<g>
</g>
<g>
</g>
<g>
</g>
<g>
</g>
<g>
</g>
<g>
</g>
<g>
</g>
<g>
</g>
<g>
</g>
<g>
</g>
</svg>
