<?xml version="1.0" encoding="iso-8859-1"?>
<!-- Generator: Adobe Illustrator 18.0.0, SVG Export Plug-In . SVG Version: 6.00 Build 0)  -->
<!DOCTYPE svg PUBLIC "-//W3C//DTD SVG 1.1//EN" "http://www.w3.org/Graphics/SVG/1.1/DTD/svg11.dtd">
<svg version="1.1" id="Capa_1" xmlns="http://www.w3.org/2000/svg" xmlns:xlink="http://www.w3.org/1999/xlink" x="0px" y="0px"
	 viewBox="0 0 369 369" style="enable-background:new 0 0 369 369;" xml:space="preserve">
<path d="M362.25,288.767H358V154.462c6.333-1.756,11-7.557,11-14.442c0-8.271-6.728-15-15-15s-15,6.729-15,15
	c0,6.885,4.667,12.686,11,14.442v12.771H112.316c6.208-3.262,11.96-7.472,17.06-12.572c0.75-0.75,1.172-1.768,1.172-2.828
	c0-1.061-0.422-2.078-1.172-2.828c-13.267-13.267-30.904-20.573-49.666-20.573c-18.762,0-36.399,7.307-49.666,20.573
	c-0.75,0.75-1.172,1.768-1.172,2.828c0,1.061,0.422,2.078,1.172,2.828c5.101,5.101,10.852,9.311,17.06,12.572H19v-65.558
	c6.333-1.756,11-7.557,11-14.442c0-8.271-6.729-15-15-15s-15,6.729-15,15c0,6.885,4.667,12.686,11,14.442v187.092H6.75
	c-2.209,0-4,1.791-4,4c0,2.209,1.791,4,4,4h16.5c2.209,0,4-1.791,4-4c0-2.209-1.791-4-4-4H19v-24.534h331v24.534h-4.25
	c-2.209,0-4,1.791-4,4c0,2.209,1.791,4,4,4h16.5c2.209,0,4-1.791,4-4C366.25,290.558,364.459,288.767,362.25,288.767z M347,140.02
	c0-3.859,3.141-7,7-7c3.859,0,7,3.141,7,7c0,3.859-3.141,7-7,7C350.141,147.02,347,143.879,347,140.02z M350,238.233H122.75v-63
	h54.905l66.269,33.585c0.568,0.288,1.188,0.432,1.809,0.432s1.24-0.144,1.809-0.432l66.269-33.585H350V238.233z M195.355,175.233
	h100.758l-50.379,25.532L195.355,175.233z M38.719,151.833c11.35-9.962,25.752-15.401,40.991-15.401
	c15.239,0,29.642,5.439,40.991,15.401c-11.35,9.96-25.753,15.4-40.991,15.4C64.472,167.233,50.068,161.792,38.719,151.833z
	 M114.75,175.233v49H19v-49H114.75z M8,87.233c0-3.859,3.141-7,7-7c3.859,0,7,3.141,7,7c0,3.859-3.141,7-7,7
	C11.141,94.233,8,91.092,8,87.233z M19,256.233v-24h95.75v10c0,2.209,1.791,4,4,4H350v10H19z"/>
<g>
</g>
<g>
</g>
<g>
</g>
<g>
</g>
<g>
</g>
<g>
</g>
<g>
</g>
<g>
</g>
<g>
</g>
<g>
</g>
<g>
</g>
<g>
</g>
<g>
</g>
<g>
</g>
<g>
</g>
</svg>
