<?xml version="1.0" encoding="iso-8859-1"?>
<!-- Generator: Adobe Illustrator 17.1.0, SVG Export Plug-In . SVG Version: 6.00 Build 0)  -->
<!DOCTYPE svg PUBLIC "-//W3C//DTD SVG 1.1//EN" "http://www.w3.org/Graphics/SVG/1.1/DTD/svg11.dtd">
<svg version="1.1" id="Capa_1" xmlns="http://www.w3.org/2000/svg" xmlns:xlink="http://www.w3.org/1999/xlink" x="0px" y="0px"
	 viewBox="0 0 191.885 191.885" style="enable-background:new 0 0 191.885 191.885;" xml:space="preserve">
<path d="M146.609,191.885c-1.381,0-2.5-1.119-2.5-2.5v-4.115H47.776v4.115c0,1.381-1.119,2.5-2.5,2.5s-2.5-1.119-2.5-2.5v-4.115
	H39.18c-4.825,0-8.75-3.925-8.75-8.75V8.75c0-4.825,3.925-8.75,8.75-8.75h113.524c4.825,0,8.75,3.925,8.75,8.75v167.77
	c0,4.825-3.925,8.75-8.75,8.75h-3.596v4.115C149.109,190.766,147.99,191.885,146.609,191.885z M146.609,180.27h6.096
	c2.067,0,3.75-1.683,3.75-3.75V8.75c0-2.067-1.683-3.75-3.75-3.75H39.18c-2.067,0-3.75,1.683-3.75,3.75v167.77
	c0,2.067,1.683,3.75,3.75,3.75H146.609z M95.943,168.29c-25.571,0-46.375-20.804-46.375-46.374s20.804-46.374,46.375-46.374
	c25.57,0,46.374,20.804,46.374,46.374S121.513,168.29,95.943,168.29z M95.943,80.542c-22.814,0-41.375,18.561-41.375,41.374
	s18.561,41.374,41.375,41.374c22.813,0,41.374-18.561,41.374-41.374S118.756,80.542,95.943,80.542z M95.943,136.162
	c-7.855,0-14.246-6.391-14.246-14.246c0-7.854,6.391-14.245,14.246-14.245c7.854,0,14.245,6.391,14.245,14.245
	C110.188,129.771,103.797,136.162,95.943,136.162z M95.943,112.671c-5.099,0-9.246,4.147-9.246,9.245
	c0,5.099,4.147,9.246,9.246,9.246c5.098,0,9.245-4.147,9.245-9.246C105.188,116.818,101.041,112.671,95.943,112.671z M95.943,65.386
	c-12.991,0-23.561-10.569-23.561-23.561s10.569-23.56,23.561-23.56s23.561,10.568,23.561,23.56S108.934,65.386,95.943,65.386z
	 M95.943,23.266c-10.234,0-18.561,8.326-18.561,18.56c0,10.234,8.326,18.561,18.561,18.561s18.561-8.326,18.561-18.561
	C114.503,31.592,106.177,23.266,95.943,23.266z M95.943,50.904c-5.006,0-9.079-4.073-9.079-9.079s4.073-9.078,9.079-9.078
	s9.078,4.072,9.078,9.078S100.949,50.904,95.943,50.904z M95.943,37.747c-2.249,0-4.079,1.829-4.079,4.078s1.83,4.079,4.079,4.079
	s4.078-1.83,4.078-4.079S98.192,37.747,95.943,37.747z"/>
<g>
</g>
<g>
</g>
<g>
</g>
<g>
</g>
<g>
</g>
<g>
</g>
<g>
</g>
<g>
</g>
<g>
</g>
<g>
</g>
<g>
</g>
<g>
</g>
<g>
</g>
<g>
</g>
<g>
</g>
</svg>
