<?xml version="1.0" encoding="iso-8859-1"?>
<!-- Generator: Adobe Illustrator 19.0.0, SVG Export Plug-In . SVG Version: 6.00 Build 0)  -->
<svg version="1.1" id="Capa_1" xmlns="http://www.w3.org/2000/svg" xmlns:xlink="http://www.w3.org/1999/xlink" x="0px" y="0px"
	 viewBox="0 0 490.667 490.667" style="enable-background:new 0 0 490.667 490.667;" xml:space="preserve">
<g>
	<g>
		<path d="M373.333,0h-256c-17.643,0-32,14.357-32,32v426.667c0,17.643,14.357,32,32,32h256c17.643,0,32-14.357,32-32V32
			C405.333,14.357,390.976,0,373.333,0z M384,458.667c0,5.867-4.779,10.667-10.667,10.667h-256c-5.888,0-10.667-4.8-10.667-10.667
			V32c0-5.867,4.779-10.667,10.667-10.667h256c5.888,0,10.667,4.8,10.667,10.667V458.667z"/>
	</g>
</g>
<g>
	<g>
		<path d="M245.333,213.333C180.629,213.333,128,265.984,128,330.667S180.629,448,245.333,448s117.333-52.651,117.333-117.333
			S310.037,213.333,245.333,213.333z M245.333,426.667c-52.928,0-96-43.072-96-96c0-52.928,43.072-96,96-96
			c52.928,0,96,43.072,96,96C341.333,383.595,298.261,426.667,245.333,426.667z"/>
	</g>
</g>
<g>
	<g>
		<path d="M245.333,42.667c-41.173,0-74.667,33.493-74.667,74.667S204.16,192,245.333,192S320,158.507,320,117.333
			S286.507,42.667,245.333,42.667z M245.333,170.667c-29.397,0-53.333-23.915-53.333-53.333C192,87.915,215.936,64,245.333,64
			s53.333,23.915,53.333,53.333C298.667,146.752,274.731,170.667,245.333,170.667z"/>
	</g>
</g>
<g>
	<g>
		<path d="M245.333,277.333c-29.397,0-53.333,23.915-53.333,53.333C192,360.085,215.936,384,245.333,384
			s53.333-23.915,53.333-53.333C298.667,301.248,274.731,277.333,245.333,277.333z M245.333,362.667c-17.643,0-32-14.357-32-32
			c0-17.643,14.357-32,32-32c17.643,0,32,14.357,32,32C277.333,348.309,262.976,362.667,245.333,362.667z"/>
	</g>
</g>
<g>
	<g>
		<path d="M245.333,96C233.579,96,224,105.557,224,117.333s9.579,21.333,21.333,21.333c11.755,0,21.333-9.557,21.333-21.333
			S257.088,96,245.333,96z"/>
	</g>
</g>
<g>
</g>
<g>
</g>
<g>
</g>
<g>
</g>
<g>
</g>
<g>
</g>
<g>
</g>
<g>
</g>
<g>
</g>
<g>
</g>
<g>
</g>
<g>
</g>
<g>
</g>
<g>
</g>
<g>
</g>
</svg>
