<?xml version="1.0" encoding="iso-8859-1"?>
<!-- Generator: Adobe Illustrator 19.0.0, SVG Export Plug-In . SVG Version: 6.00 Build 0)  -->
<svg version="1.1" id="Capa_1" xmlns="http://www.w3.org/2000/svg" xmlns:xlink="http://www.w3.org/1999/xlink" x="0px" y="0px"
	 viewBox="0 0 396.8 396.8" style="enable-background:new 0 0 396.8 396.8;" xml:space="preserve">
<g>
	<g>
		<path d="M366.848,201.728c-2.048-2.048-5.12-2.048-7.168,0c-2.048,2.048-2.048,5.12,0,7.168c36.352,35.84,36.352,94.72,0,130.56
			c-2.048,2.048-2.048,5.12,0,7.168c1.024,1.024,2.56,1.536,3.584,1.536c1.536,0,2.56-0.512,3.584-1.536
			C406.784,306.688,406.784,241.664,366.848,201.728z"/>
	</g>
</g>
<g>
	<g>
		<path d="M351.488,217.088c-2.048-2.048-5.12-2.048-7.168,0c-2.048,2.048-2.048,5.12,0,7.168
			c27.648,27.648,27.648,73.216,0,100.864c-2.048,2.048-2.048,5.632,0,7.68c1.024,1.024,2.56,1.536,3.584,1.536
			c1.536,0,2.56-0.512,3.584-1.536C383.232,301.056,383.232,249.344,351.488,217.088z"/>
	</g>
</g>
<g>
	<g>
		<path d="M37.12,209.92c2.048-2.048,2.048-5.12,0-7.168c-2.048-2.048-5.12-2.048-7.168,0c-39.936,39.936-39.936,104.96,0,144.896
			c1.024,1.024,2.048,1.536,3.584,1.536c1.536,0,2.56-0.512,3.584-1.536c2.048-2.048,2.048-5.12,0-7.168
			C1.28,304.64,1.28,245.76,37.12,209.92z"/>
	</g>
</g>
<g>
	<g>
		<path d="M52.48,223.744c2.048-2.048,2.048-5.12,0-7.168c-2.048-2.048-5.12-2.048-7.168,0c-31.744,31.744-31.744,83.456,0,115.2
			c1.024,1.024,2.56,1.536,3.584,1.536c1.536,0,2.56-0.512,3.584-1.536c2.048-2.048,2.048-5.12,0-7.168
			C24.832,296.96,24.832,251.392,52.48,223.744z"/>
	</g>
</g>
<g>
	<g>
		<path d="M297.728,1.536H97.024c-15.872,0-29.184,12.8-29.184,29.184v334.848c0,16.384,13.312,29.696,29.184,29.696h200.704
			c15.872,0,29.184-12.8,29.184-29.184V30.72C326.912,14.848,314.112,1.536,297.728,1.536z M316.672,365.568
			c0,10.24-8.192,18.944-18.944,18.944H97.024c-10.24,0-18.944-8.192-18.944-18.944c0,0,0-334.848,0-334.848
			c0-10.24,8.192-18.944,18.944-18.944h200.704c10.24,0,18.944,8.192,18.944,18.944V365.568z"/>
	</g>
</g>
<g>
	<g>
		<path d="M197.376,183.296c-50.176,0-90.624,40.448-90.624,90.624c0.512,50.176,40.96,90.624,90.624,90.624S288,324.096,288,273.92
			C288,224.256,247.552,183.296,197.376,183.296z M197.376,354.816c-44.032,0-80.384-35.84-80.384-80.384
			c0.512-44.544,36.352-80.384,80.384-80.384s80.384,35.84,80.384,80.384C277.76,318.464,241.92,354.816,197.376,354.816z"/>
	</g>
</g>
<g>
	<g>
		<path d="M197.376,230.4c-24.064,0-43.52,19.456-43.52,43.52c0,24.064,19.456,43.52,43.52,43.52c24.064,0,43.52-19.456,43.52-43.52
			C240.896,249.856,221.44,230.4,197.376,230.4z M197.376,307.2c-18.432,0-33.28-14.848-33.28-33.28
			c0-17.92,14.848-33.28,33.28-33.28s33.28,14.848,33.28,33.28C230.656,292.352,215.808,307.2,197.376,307.2z"/>
	</g>
</g>
<g>
	<g>
		<path d="M197.376,249.344c-13.312,0-24.576,10.752-24.576,24.576s11.264,24.576,24.576,24.576s24.576-10.752,24.576-24.576
			S211.2,249.344,197.376,249.344z M197.376,288.768c-7.68,0-14.336-6.144-14.336-14.336c0.512-8.192,6.656-14.336,14.336-14.336
			s14.336,6.144,14.336,14.336C211.712,282.112,205.568,288.768,197.376,288.768z"/>
	</g>
</g>
<g>
	<g>
		<path d="M197.376,38.912c-34.816,0-62.976,28.16-62.976,62.976c0.512,34.816,28.672,62.976,62.976,62.976
			c34.816,0,62.976-28.16,62.976-62.976S232.192,38.912,197.376,38.912z M197.376,155.136c-29.184,0-52.736-23.552-52.736-52.736
			s24.064-52.736,52.736-52.736c29.184,0,52.736,23.552,52.736,52.736S226.56,155.136,197.376,155.136z"/>
	</g>
</g>
<g>
	<g>
		<path d="M197.376,68.608c-18.944,0-33.792,15.36-33.792,33.792s15.36,33.792,33.792,33.792c18.944,0,33.792-15.36,33.792-33.792
			S215.808,68.608,197.376,68.608z M197.376,125.44c-13.312,0-23.552-10.752-23.552-23.552c0-12.8,10.752-23.552,23.552-23.552
			c13.312,0,23.552,10.752,23.552,23.552C220.928,115.2,210.176,125.44,197.376,125.44z"/>
	</g>
</g>
<g>
</g>
<g>
</g>
<g>
</g>
<g>
</g>
<g>
</g>
<g>
</g>
<g>
</g>
<g>
</g>
<g>
</g>
<g>
</g>
<g>
</g>
<g>
</g>
<g>
</g>
<g>
</g>
<g>
</g>
</svg>
