<?xml version="1.0" encoding="iso-8859-1"?>
<!-- Generator: Adobe Illustrator 19.0.0, SVG Export Plug-In . SVG Version: 6.00 Build 0)  -->
<svg version="1.1" id="Layer_1" xmlns="http://www.w3.org/2000/svg" xmlns:xlink="http://www.w3.org/1999/xlink" x="0px" y="0px"
	 viewBox="0 0 511.999 511.999" style="enable-background:new 0 0 511.999 511.999;" xml:space="preserve">
<g>
	<g>
		<path d="M484.365,208.919h-37.841c-4.932,0-8.931,3.999-8.931,8.931s3.999,8.931,8.931,8.931h37.841
			c5.389,0,9.774,4.384,9.774,9.774c0,5.389-4.384,9.774-9.774,9.774H308.721V226.78h108.034c4.932,0,8.931-3.999,8.931-8.931
			c0-4.932-3.999-8.931-8.931-8.931H308.721v-9.502c0-4.932-3.999-8.931-8.931-8.931H8.931c-4.932,0-8.931,3.999-8.931,8.931v37.853
			c0,4.932,3.999,8.931,8.931,8.931c4.932,0,8.931-3.999,8.931-8.931v-28.922H290.86v140.591c0,15.051-12.245,27.296-27.296,27.296
			H45.157c-15.051,0-27.296-12.244-27.296-27.296v-81.901c0-4.932-3.999-8.931-8.931-8.931c-4.932,0-8.931,3.999-8.931,8.931v81.901
			c0,24.9,20.257,45.157,45.157,45.157h218.406c24.9,0,45.157-20.257,45.157-45.157v-84.749h175.644
			c15.238,0,27.635-12.397,27.635-27.635S499.603,208.919,484.365,208.919z"/>
	</g>
</g>
<g>
	<g>
		<path d="M79.939,408.977c-4.932,0-8.931,3.999-8.931,8.931v28.577c0,4.932,3.999,8.931,8.931,8.931s8.931-3.999,8.931-8.931
			v-28.577C88.869,412.975,84.871,408.977,79.939,408.977z"/>
	</g>
</g>
<g>
	<g>
		<path d="M129.552,408.977c-4.932,0-8.931,3.999-8.931,8.931v28.577c0,4.932,3.999,8.931,8.931,8.931
			c4.932,0,8.931-3.999,8.931-8.931v-28.577C138.483,412.975,134.485,408.977,129.552,408.977z"/>
	</g>
</g>
<g>
	<g>
		<path d="M179.167,408.977c-4.932,0-8.931,3.999-8.931,8.931v28.577c0,4.932,3.999,8.931,8.931,8.931
			c4.932,0,8.931-3.999,8.931-8.931v-28.577C188.098,412.975,184.1,408.977,179.167,408.977z"/>
	</g>
</g>
<g>
	<g>
		<path d="M228.782,408.978c-4.932,0-8.931,3.999-8.931,8.931v28.577c0,4.932,3.999,8.931,8.931,8.931
			c4.932,0,8.931-3.999,8.931-8.931v-28.577C237.713,412.976,233.715,408.978,228.782,408.978z"/>
	</g>
</g>
<g>
	<g>
		<path d="M273.132,469.108h-17.128c-4.932,0-8.931,3.999-8.931,8.931c0,4.932,3.999,8.931,8.931,8.931h17.128
			c4.932,0,8.931-3.999,8.931-8.931C282.063,473.107,278.064,469.108,273.132,469.108z"/>
	</g>
</g>
<g>
	<g>
		<path d="M226.235,469.108H35.589c-4.932,0-8.931,3.999-8.931,8.931c0,4.932,3.999,8.931,8.931,8.931h190.646
			c4.932,0,8.931-3.999,8.931-8.931C235.166,473.107,231.168,469.108,226.235,469.108z"/>
	</g>
</g>
<g>
	<g>
		<path d="M191.492,92.079c-4.962-6.117-8.546-10.537-8.546-20.369c0-9.823,3.583-14.241,8.542-20.358
			c3.069-3.783,6.546-8.072,9.051-13.821c1.971-4.521-0.098-9.784-4.619-11.755c-4.521-1.971-9.784,0.098-11.755,4.619
			c-1.535,3.522-3.859,6.39-6.55,9.708c-5.582,6.885-12.53,15.455-12.53,31.607c0,16.164,6.949,24.734,12.534,31.62
			c4.961,6.113,8.542,10.531,8.542,20.355c0,9.836-3.584,14.257-8.545,20.376c-4.614,5.691-9.843,12.14-11.781,22.866
			c-0.878,4.854,2.346,9.5,7.199,10.377c0.538,0.098,1.072,0.144,1.599,0.144c4.237,0,7.997-3.027,8.778-7.343
			c1.124-6.216,4.193-10.002,8.079-14.796c5.583-6.887,12.531-15.457,12.531-31.624C204.022,107.53,197.074,98.962,191.492,92.079z"
			/>
	</g>
</g>
<g>
	<g>
		<path d="M131.105,92.079c-4.962-6.117-8.546-10.537-8.546-20.369c0-9.823,3.583-14.241,8.542-20.358
			c3.069-3.783,6.546-8.072,9.051-13.821c1.971-4.521-0.098-9.784-4.619-11.755c-4.521-1.971-9.784,0.098-11.755,4.619
			c-1.535,3.522-3.859,6.39-6.55,9.708c-5.582,6.885-12.53,15.455-12.53,31.607c0,16.164,6.949,24.734,12.534,31.62
			c4.959,6.113,8.542,10.531,8.542,20.355c0,9.836-3.584,14.257-8.545,20.376c-4.614,5.691-9.843,12.14-11.781,22.866
			c-0.878,4.854,2.346,9.5,7.199,10.377c0.538,0.098,1.072,0.144,1.599,0.144c4.237,0,7.997-3.027,8.778-7.343
			c1.124-6.216,4.193-10.002,8.079-14.796c5.583-6.887,12.531-15.457,12.531-31.624C143.635,107.53,136.687,98.962,131.105,92.079z"
			/>
	</g>
</g>
<g>
</g>
<g>
</g>
<g>
</g>
<g>
</g>
<g>
</g>
<g>
</g>
<g>
</g>
<g>
</g>
<g>
</g>
<g>
</g>
<g>
</g>
<g>
</g>
<g>
</g>
<g>
</g>
<g>
</g>
</svg>
