<?xml version="1.0" encoding="iso-8859-1"?>
<!-- Generator: Adobe Illustrator 19.0.0, SVG Export Plug-In . SVG Version: 6.00 Build 0)  -->
<svg version="1.1" id="Capa_1" xmlns="http://www.w3.org/2000/svg" xmlns:xlink="http://www.w3.org/1999/xlink" x="0px" y="0px"
	 viewBox="0 0 512 512" style="enable-background:new 0 0 512 512;" xml:space="preserve">
<g>
	<g>
		<path d="M222.982,186.637h-92.295c-4.225,0-7.65,3.425-7.65,7.65s3.425,7.65,7.65,7.65h92.295c4.225,0,7.65-3.425,7.65-7.65
			S227.207,186.637,222.982,186.637z"/>
	</g>
</g>
<g>
	<g>
		<path d="M512,270.996c0-29.06-14.771-54.735-37.198-69.913C495.969,196.962,512,178.289,512,155.934
			c0-25.367-20.637-46.004-46.004-46.004h-30.501c-4.225,0-7.65,3.425-7.65,7.65c0,4.225,3.425,7.65,7.65,7.65h30.501
			c16.93,0,30.703,13.773,30.703,30.704c0,16.93-13.773,30.703-30.703,30.703h-38.354h-25.261c-4.225,0-7.65,3.425-7.65,7.65
			s3.425,7.65,7.65,7.65h25.261c38.078,0,69.057,30.979,69.057,69.059c0.003,38.072-30.976,69.051-69.057,69.056H126.635
			c-4.225,0-7.65,3.425-7.65,7.65c0,4.226,3.425,7.65,7.65,7.65h301.008h38.353c16.93,0,30.703,13.774,30.703,30.704
			s-13.773,30.703-30.703,30.703H84.358c-38.078,0-69.057-30.978-69.057-69.057c0-38.079,30.978-69.057,69.057-69.057H189.15
			c4.225,0,7.65-3.425,7.65-7.65c0-4.226-3.425-7.65-7.65-7.65H84.358c-38.078,0-69.057-30.979-69.057-69.058
			s30.978-69.057,69.057-69.057H223.54c4.225,0,7.65-3.425,7.65-7.65c0-4.225-3.425-7.65-7.65-7.65H84.358
			C37.842,109.93,0,147.773,0,194.288c0,34.018,20.251,63.377,49.321,76.708C20.251,284.327,0,313.685,0,347.703
			c0,46.515,37.842,84.358,84.358,84.358h381.638c25.367,0,46.004-20.637,46.004-46.003c0-22.356-16.032-41.03-37.201-45.15
			C497.231,325.729,512.003,300.054,512,270.996z"/>
	</g>
</g>
<g>
	<g>
		<path d="M376.914,79.939H215.256c-20.756,0-37.641,16.886-37.641,37.641c0,2.03,0.806,3.976,2.241,5.41
			c1.435,1.435,3.381,2.241,5.41,2.241h30.623v153.794c0,17.223,14.012,31.236,31.237,31.236h131.669
			c17.225,0,31.237-14.013,31.238-31.237V113.058C410.033,94.796,395.176,79.939,376.914,79.939z M394.732,279.026
			c0,8.788-7.149,15.936-15.936,15.936H247.127c-8.788,0-15.937-7.149-15.937-15.936V117.581c0-2.03-0.806-3.976-2.241-5.41
			c-1.435-1.435-3.381-2.241-5.41-2.241h-29.274c3.131-8.561,11.359-14.689,20.991-14.689h161.658
			c9.825,0,17.818,7.993,17.818,17.818V279.026z"/>
	</g>
</g>
<g>
</g>
<g>
</g>
<g>
</g>
<g>
</g>
<g>
</g>
<g>
</g>
<g>
</g>
<g>
</g>
<g>
</g>
<g>
</g>
<g>
</g>
<g>
</g>
<g>
</g>
<g>
</g>
<g>
</g>
</svg>
