<?xml version="1.0"?>
<svg xmlns="http://www.w3.org/2000/svg" xmlns:xlink="http://www.w3.org/1999/xlink" version="1.1" id="Capa_1" x="0px" y="0px" viewBox="0 0 512 512" style="enable-background:new 0 0 512 512;" xml:space="preserve" width="512px" height="512px" class=""><g><g>
	<g>
		<g>
			<path d="M512,230.4c0-0.18-0.092-0.33-0.102-0.507c-1.878-47.468-99.098-76.089-204.698-83.107V51.2     c0-4.713-3.82-8.533-8.533-8.533s-8.533,3.821-8.533,8.533v25.6h-76.8V51.2c0-4.713-3.821-8.533-8.533-8.533     s-8.533,3.821-8.533,8.533v96.19C94.016,155.352,1.93,183.706,0.102,229.893C0.092,230.07,0,230.22,0,230.4V384     c0,0.156,0.08,0.286,0.089,0.44C0.08,384.593,0,384.723,0,384.879c0,40.809,73.013,67.628,161.497,78.692     c0.221,0.017,0.411,0.129,0.636,0.129l0.137-0.028c31.099,3.789,62.4,5.68,93.729,5.661c31.329,0.019,62.63-1.872,93.729-5.661     l0.138,0.028c0.226,0,0.415-0.111,0.636-0.129C438.987,452.507,512,425.688,512,384.879c0-0.156-0.08-0.286-0.089-0.44     C511.92,384.286,512,384.156,512,384V230.4z M213.333,93.867h76.8v17.067h-76.8V93.867z M213.333,128h76.8v17.828     c-11.372-0.502-22.785-0.761-34.133-0.761c-14.192,0-28.48,0.415-42.667,1.198V128z M68.267,425.333     c-32.6-12.023-51.2-26.582-51.2-40.454c0-0.156-0.08-0.286-0.089-0.44c0.008-0.153,0.089-0.284,0.089-0.439V263.895     c15.215,12.185,32.583,21.405,51.2,27.181V425.333z M153.6,445.421c-23.082-3.109-45.901-7.931-68.267-14.428V296.49     c22.401,6.271,45.212,10.972,68.267,14.07V445.421z M247.467,452.2c-25.661-0.213-51.295-1.743-76.8-4.582V312.709     c25.504,2.871,51.137,4.446,76.8,4.718V452.2z M341.333,447.617c-25.505,2.84-51.138,4.369-76.8,4.582V317.427     c25.663-0.272,51.296-1.846,76.8-4.718V447.617z M256,300.424c-140.809,0-238.933-36.441-238.933-69.146     S115.191,162.133,256,162.133s238.933,36.442,238.933,69.146S396.809,300.424,256,300.424z M426.667,430.994     c-22.366,6.496-45.185,11.319-68.267,14.428V310.56c23.055-3.098,45.866-7.8,68.267-14.07V430.994z M494.933,384.879     c0,13.872-18.6,28.431-51.2,40.454V291.075c18.618-5.776,35.985-14.996,51.2-27.181V384c0,0.156,0.08,0.286,0.089,0.44     C495.013,384.593,494.933,384.723,494.933,384.879z" data-original="#000000" class="active-path" data-old_color="#703939" fill="#343434"/>
			<path d="M256,179.2c-70.837,0-204.8,10.7-204.8,51.2c0,40.5,133.963,51.2,204.8,51.2s204.8-10.7,204.8-51.2     C460.8,189.9,326.838,179.2,256,179.2z M256,264.533c-121.471,0-187.733-22.55-187.733-34.133S134.529,196.267,256,196.267     s187.733,22.55,187.733,34.133S377.471,264.533,256,264.533z" data-original="#000000" class="active-path" data-old_color="#703939" fill="#343434"/>
			<path d="M215.963,226.104c-0.617,0.329-4.396,1.862-13.746-1.787c-13.332-5.213-28.499-1.595-38.042,9.075     c-2.162,2.532-2.654,6.09-1.26,9.113c1.394,3.024,4.419,4.961,7.748,4.961c2.499,0.004,4.874-1.09,6.496-2.992     c4.803-5.173,12.29-6.864,18.85-4.258c21.633,8.442,30.742-0.525,32.35-2.412c2.953-3.459,2.674-8.625-0.633-11.746     C224.419,222.937,219.245,222.957,215.963,226.104z" data-original="#000000" class="active-path" data-old_color="#703939" fill="#343434"/>
			<path d="M326.896,226.104c-0.617,0.329-4.396,1.862-13.746-1.787c-13.332-5.212-28.498-1.594-38.042,9.075     c-2.162,2.532-2.654,6.09-1.26,9.113c1.394,3.024,4.419,4.961,7.748,4.961c2.499,0.004,4.874-1.09,6.496-2.992     c4.802-5.174,12.29-6.865,18.85-4.258c21.646,8.442,30.746-0.525,32.35-2.412c2.953-3.459,2.674-8.625-0.633-11.746     C335.352,222.937,330.178,222.957,326.896,226.104z" data-original="#000000" class="active-path" data-old_color="#703939" fill="#343434"/>
		</g>
	</g>
</g></g> </svg>
