<?xml version="1.0" encoding="iso-8859-1"?>
<!-- Generator: Adobe Illustrator 19.0.0, SVG Export Plug-In . SVG Version: 6.00 Build 0)  -->
<svg version="1.1" id="Capa_1" xmlns="http://www.w3.org/2000/svg" xmlns:xlink="http://www.w3.org/1999/xlink" x="0px" y="0px"
	 viewBox="0 0 512.001 512.001" style="enable-background:new 0 0 512.001 512.001;" xml:space="preserve">
<path style="fill:#7CC1EE;" d="M47.846,464.753c49.664,49.664,130.186,49.664,179.849,0c38.475-38.475,47.134-95.466,25.996-142.286
	l0,0c-0.38-0.841-0.77-1.679-1.169-2.514c-0.01-0.02-0.019-0.041-0.029-0.061c-0.396-0.827-0.802-1.651-1.216-2.472
	c-0.008-0.016-0.017-0.033-0.025-0.049c-2.463-4.864-5.261-9.601-8.389-14.18c-0.116-0.171-0.23-0.343-0.348-0.512
	c-0.382-0.553-0.773-1.102-1.165-1.651c-0.202-0.283-0.403-0.567-0.608-0.849c-0.355-0.489-0.716-0.974-1.079-1.458
	c-0.254-0.34-0.509-0.679-0.767-1.016c-0.339-0.444-0.683-0.885-1.028-1.325c-0.295-0.376-0.593-0.751-0.894-1.124
	c-0.327-0.407-0.656-0.813-0.989-1.217c-0.335-0.406-0.674-0.81-1.015-1.213c-0.314-0.372-0.628-0.743-0.947-1.112
	c-0.381-0.44-0.768-0.876-1.156-1.313c-0.293-0.329-0.583-0.66-0.88-0.987c-0.454-0.5-0.918-0.996-1.382-1.491
	c-0.243-0.26-0.482-0.522-0.728-0.78c-0.718-0.753-1.445-1.5-2.184-2.24c-0.754-0.754-1.516-1.496-2.284-2.227
	c-0.249-0.237-0.502-0.466-0.753-0.701c-0.521-0.488-1.042-0.977-1.569-1.454c-0.312-0.282-0.628-0.557-0.942-0.836
	c-0.471-0.419-0.942-0.839-1.418-1.25c-0.343-0.296-0.689-0.584-1.034-0.875c-0.454-0.384-0.908-0.768-1.367-1.144
	c-0.362-0.297-0.728-0.588-1.092-0.88c-0.446-0.358-0.893-0.716-1.343-1.068c-0.379-0.296-0.761-0.586-1.142-0.877
	c-0.441-0.337-0.883-0.672-1.328-1.002c-0.393-0.291-0.787-0.578-1.183-0.864c-0.44-0.318-0.88-0.635-1.323-0.947
	c-0.404-0.285-0.81-0.566-1.216-0.845c-0.439-0.302-0.88-0.601-1.322-0.897c-0.414-0.277-0.83-0.552-1.247-0.824
	c-0.439-0.286-0.879-0.568-1.32-0.848c-0.425-0.27-0.851-0.538-1.278-0.802c-0.439-0.271-0.88-0.538-1.322-0.803
	c-0.433-0.26-0.867-0.52-1.302-0.775c-0.439-0.257-0.881-0.508-1.323-0.759c-0.444-0.252-0.887-0.505-1.333-0.752
	c-0.438-0.242-0.879-0.478-1.319-0.714c-0.452-0.243-0.904-0.488-1.358-0.725c-0.44-0.23-0.884-0.452-1.326-0.676
	c-0.459-0.232-0.916-0.468-1.377-0.694c-0.44-0.217-0.884-0.424-1.326-0.635c-0.467-0.223-0.933-0.45-1.402-0.667
	c-0.445-0.206-0.894-0.402-1.341-0.602c-0.469-0.21-0.936-0.425-1.406-0.629c-46.485-20.15-102.549-11.226-140.549,26.773
	C-1.819,334.567-1.819,415.088,47.846,464.753z M76.529,382.403c14.471-14.471,37.933-14.471,52.405,0
	c14.471,14.471,14.471,37.933,0,52.404s-37.933,14.471-52.405,0C62.058,420.336,62.058,396.874,76.529,382.403z"/>
<path style="fill:#EECC77;" d="M191.141,259.361c0.469,0.217,0.935,0.444,1.402,0.667c0.442,0.211,0.886,0.419,1.326,0.635
	c0.461,0.227,0.918,0.462,1.377,0.694c0.443,0.224,0.886,0.447,1.326,0.676c0.455,0.237,0.906,0.482,1.358,0.725
	c0.44,0.237,0.881,0.472,1.319,0.714c0.446,0.247,0.89,0.5,1.333,0.752c0.442,0.251,0.883,0.502,1.323,0.759
	c0.436,0.255,0.869,0.515,1.302,0.775c0.442,0.266,0.883,0.532,1.322,0.803c0.427,0.264,0.853,0.532,1.278,0.802
	c0.441,0.28,0.882,0.562,1.32,0.848c0.417,0.272,0.833,0.547,1.247,0.824c0.442,0.296,0.883,0.595,1.322,0.897
	c0.406,0.28,0.812,0.561,1.216,0.845c0.443,0.312,0.883,0.629,1.323,0.947c0.395,0.286,0.79,0.573,1.183,0.864
	c0.445,0.33,0.886,0.665,1.328,1.002c0.382,0.291,0.763,0.581,1.142,0.877c0.45,0.351,0.897,0.709,1.343,1.068
	c0.365,0.292,0.73,0.583,1.092,0.88c0.458,0.376,0.912,0.76,1.367,1.144c0.345,0.291,0.692,0.579,1.034,0.875
	c0.476,0.411,0.947,0.831,1.418,1.25c0.314,0.279,0.63,0.553,0.942,0.836c0.527,0.478,1.048,0.966,1.569,1.454
	c0.25,0.235,0.504,0.464,0.753,0.701c0.768,0.731,1.53,1.473,2.284,2.227c0.74,0.74,1.467,1.487,2.184,2.24
	c0.246,0.258,0.485,0.52,0.728,0.78c0.464,0.495,0.927,0.99,1.382,1.491c0.297,0.327,0.587,0.658,0.88,0.987
	c0.388,0.436,0.775,0.872,1.156,1.313c0.319,0.369,0.633,0.74,0.947,1.112c0.341,0.403,0.68,0.807,1.015,1.213
	c0.333,0.404,0.662,0.81,0.989,1.217c0.3,0.374,0.598,0.748,0.894,1.124c0.346,0.44,0.689,0.882,1.028,1.325
	c0.258,0.338,0.513,0.677,0.767,1.016c0.363,0.485,0.724,0.97,1.079,1.458c0.205,0.282,0.406,0.566,0.608,0.849
	c0.392,0.548,0.783,1.097,1.165,1.651c0.117,0.17,0.231,0.342,0.348,0.512c3.127,4.58,5.926,9.317,8.389,14.18
	c0.008,0.016,0.017,0.033,0.025,0.049c0.415,0.821,0.82,1.645,1.216,2.472c0.01,0.02,0.019,0.041,0.029,0.061
	c0.399,0.834,0.789,1.672,1.169,2.514l0,0l86.733-86.734l12.296-45.088l50.401-17.608l3.946-38.864l38.562-3.644l53.132-53.132
	l2.507-36.49c1.203-17.506-13.333-32.042-30.839-30.839l-36.49,2.507l-245.55,245.553c0.002,0.001,0.005,0.002,0.007,0.003
	c0.471,0.204,0.938,0.419,1.406,0.629C190.247,258.958,190.696,259.156,191.141,259.361z"/>
<path style="fill:#CD5897;" d="M369.289,476.144c4.668,0.037,9.121-1.957,12.202-5.464l79.832-90.887
	c9.434-10.74,8.375-27.094-2.365-36.528l-31.667-27.816c-10.74-9.434-27.094-8.375-36.528,2.365L310.931,408.7
	c-3.081,3.507-4.484,8.18-3.845,12.804l7.491,54.2L369.289,476.144z"/>
<g>
	<path style="fill:#040507;" d="M40.775,277.832c-53.483,53.483-53.483,140.508,0,193.992
		c25.908,25.908,60.355,40.177,96.997,40.177c21.659,0,42.551-4.989,61.367-14.418c11.178,3.359,22.983,5.637,35.276,6.33
		c2.621,0.148,5.225,0.221,7.826,0.221c24.07,0,47.251-6.338,69.32-18.901c0.931,0.295,1.915,0.464,2.935,0.472l54.713,0.438
		c0.07,0,0.14,0.001,0.211,0.001c7.5,0,14.629-3.224,19.585-8.865l79.831-90.887c6.326-7.201,9.469-16.435,8.85-26
		c-0.62-9.564-4.927-18.315-12.128-24.641l-31.667-27.816c-14.866-13.057-37.584-11.586-50.641,3.279L303.418,402.1
		c-5.001,5.693-7.275,13.264-6.238,20.773l6.083,44.016c-21.583,12.625-44.211,18.356-67.615,17.06
		c-4.366-0.242-8.675-0.723-12.917-1.412c4.184-3.313,8.206-6.883,12.038-10.714c25.908-25.909,40.177-60.355,40.177-96.996
		c0-17.416-3.23-34.333-9.395-50.076l81.947-81.947c1.23-1.23,2.118-2.761,2.576-4.44l10.912-40.013l45.436-15.874
		c3.666-1.281,6.259-4.567,6.651-8.431l3.115-30.69l30.383-2.871c2.317-0.219,4.485-1.239,6.131-2.885l53.132-53.133
		c1.708-1.708,2.739-3.976,2.905-6.385l2.507-36.49c0.771-11.228-3.351-22.232-11.309-30.191
		c-7.959-7.959-18.965-12.073-30.191-11.31l-36.49,2.507c-2.409,0.166-4.678,1.198-6.386,2.905l-240.852,240.85
		c-15.222-5.708-31.504-8.697-48.248-8.697C101.13,237.655,66.683,251.923,40.775,277.832z M316.992,420.137
		c-0.242-1.749,0.287-3.512,1.452-4.837l79.831-90.887c5.78-6.578,15.836-7.232,22.416-1.452l31.667,27.816
		c3.188,2.8,5.095,6.673,5.369,10.907c0.273,4.233-1.117,8.32-3.917,11.508l-79.832,90.887c-1.154,1.313-2.813,2.064-4.561,2.064
		c-0.016,0-0.032,0-0.049,0l-30.35-0.243c3.176-2.687,6.326-5.512,9.446-8.479c4.002-3.806,4.161-10.136,0.354-14.138
		c-3.806-4.001-10.134-4.161-14.138-0.354c-4.276,4.066-8.604,7.822-12.981,11.29L316.992,420.137z M438.362,22.294l32.754-2.25
		c2.036-0.14,4.057,0.053,5.992,0.548l-37.84,38.833c-3.854,3.956-3.772,10.287,0.184,14.141c1.943,1.895,4.462,2.838,6.978,2.838
		c2.603,0,5.203-1.01,7.163-3.021l37.324-38.303c0.348,1.675,0.496,3.398,0.376,5.14l-2.25,32.753l-47.938,47.938l-34.977,3.305
		c-4.754,0.449-8.526,4.196-9.009,8.945l-3.302,32.532l-44.394,15.509c-3.108,1.086-5.483,3.633-6.35,6.81l-11.598,42.525
		l-75.164,75.166c-4.234-7.233-9.149-14.112-14.727-20.549l30.431-30.43c3.905-3.905,3.905-10.237,0-14.142
		c-3.905-3.905-10.235-3.905-14.143,0l-30.431,30.431c-0.996-0.863-2.002-1.709-3.019-2.541c-0.066-0.054-0.133-0.106-0.199-0.159
		c-1.068-0.87-2.149-1.719-3.24-2.555c-0.168-0.128-0.336-0.257-0.504-0.384c-4.859-3.688-9.927-7.037-15.182-10.018L438.362,22.294
		z M203.574,277.846c0.068,0.046,0.135,0.093,0.202,0.139c0.661,0.451,1.316,0.91,1.968,1.375c0.167,0.119,0.332,0.24,0.498,0.361
		c0.561,0.405,1.119,0.814,1.674,1.229c0.25,0.187,0.497,0.378,0.745,0.568c0.476,0.363,0.951,0.727,1.422,1.097
		c0.314,0.248,0.625,0.5,0.938,0.751c0.409,0.328,0.818,0.656,1.223,0.99c0.361,0.298,0.718,0.603,1.076,0.906
		c0.356,0.301,0.713,0.599,1.065,0.905c0.396,0.343,0.786,0.693,1.178,1.042c0.313,0.279,0.629,0.554,0.94,0.837
		c0.428,0.389,0.851,0.788,1.274,1.184c0.27,0.253,0.543,0.501,0.811,0.757c0.556,0.53,1.105,1.07,1.652,1.612
		c0.127,0.126,0.257,0.248,0.384,0.375l0,0c1.187,1.187,2.34,2.399,3.471,3.629c0.102,0.111,0.206,0.22,0.308,0.331
		c1.095,1.201,2.161,2.423,3.202,3.663c0.107,0.127,0.214,0.253,0.321,0.381c1.063,1.277,2.099,2.573,3.104,3.891
		c0.043,0.056,0.086,0.113,0.129,0.169c5.304,6.98,9.797,14.52,13.419,22.543c0.077,0.171,0.175,0.329,0.261,0.494
		c6.621,14.831,10.106,31.023,10.106,47.751c0,31.297-12.188,60.722-34.319,82.853l0,0c-7.099,7.099-14.952,13.169-23.373,18.148
		c-24.049-8.703-44.805-22.815-59.99-35.269c8.087-8.722,12.526-19.995,12.526-31.955c0-12.569-4.895-24.386-13.782-33.273
		c-8.888-8.888-20.705-13.782-33.274-13.782s-24.386,4.895-33.273,13.782c-18.346,18.347-18.346,48.199,0,66.547
		c8.888,8.888,20.705,13.782,33.273,13.782c6.019,0,11.86-1.134,17.295-3.28c13.137,11.283,30.903,24.368,51.987,34.561
		c-10.957,3.331-22.467,5.058-34.242,5.058c-31.298,0-60.723-12.188-82.854-34.319c-45.685-45.685-45.685-120.022,0-165.707
		c22.13-22.131,51.555-34.319,82.853-34.319c16.196,0,31.886,3.271,46.328,9.488c0.106,0.05,0.204,0.112,0.312,0.159
		C191.142,270.22,197.544,273.745,203.574,277.846z M110.393,414.941c-3.549-4.231-9.856-4.786-14.088-1.235
		c-4.231,3.549-4.785,9.856-1.235,14.088c0.464,0.554,2.94,3.468,7.175,7.855c-7.044-0.124-13.65-2.918-18.645-7.913
		c-10.549-10.549-10.549-27.714,0-38.262c5.11-5.11,11.904-7.925,19.131-7.925c7.227,0,14.021,2.814,19.132,7.925
		c5.11,5.11,7.924,11.904,7.924,19.131c0,7.018-2.661,13.624-7.495,18.68C114.856,420.154,110.619,415.208,110.393,414.941z"/>
	<path style="fill:#040507;" d="M153.219,277.152c-36.028-6.453-72.214,9.192-92.191,39.858c-3.015,4.627-1.707,10.822,2.92,13.837
		c1.686,1.098,3.578,1.622,5.449,1.622c3.268,0,6.472-1.6,8.388-4.543c15.581-23.917,43.805-36.118,71.906-31.087
		c5.433,0.975,10.633-2.644,11.606-8.08C162.271,283.323,158.655,278.125,153.219,277.152z"/>
	<path style="fill:#040507;" d="M181.317,291.25c-0.46,0.46-0.88,0.97-1.24,1.52c-0.36,0.54-0.67,1.13-0.92,1.73
		s-0.45,1.23-0.57,1.87c-0.13,0.64-0.2,1.3-0.2,1.95c0,2.63,1.07,5.21,2.93,7.07c0.46,0.46,0.97,0.88,1.52,1.25
		c0.54,0.36,1.12,0.67,1.72,0.92c0.61,0.25,1.24,0.44,1.88,0.57s1.3,0.19,1.95,0.19c0.65,0,1.31-0.06,1.95-0.19
		c0.64-0.13,1.27-0.32,1.87-0.57c0.61-0.25,1.19-0.56,1.73-0.92c0.55-0.37,1.06-0.79,1.52-1.25c1.86-1.86,2.93-4.44,2.93-7.07
		c0-0.65-0.07-1.31-0.2-1.95c-0.12-0.64-0.32-1.27-0.57-1.87s-0.56-1.19-0.92-1.73c-0.36-0.55-0.78-1.06-1.24-1.52
		c-0.46-0.46-0.97-0.88-1.52-1.24c-0.54-0.36-1.12-0.67-1.73-0.92c-0.6-0.25-1.23-0.44-1.87-0.57c-1.29-0.26-2.61-0.26-3.9,0
		c-0.64,0.13-1.27,0.32-1.88,0.57c-0.6,0.25-1.18,0.56-1.72,0.92C182.287,290.369,181.777,290.79,181.317,291.25z"/>
</g>
<g>
</g>
<g>
</g>
<g>
</g>
<g>
</g>
<g>
</g>
<g>
</g>
<g>
</g>
<g>
</g>
<g>
</g>
<g>
</g>
<g>
</g>
<g>
</g>
<g>
</g>
<g>
</g>
<g>
</g>
</svg>
