<?xml version="1.0" encoding="iso-8859-1"?>
<!-- Generator: Adobe Illustrator 19.0.0, SVG Export Plug-In . SVG Version: 6.00 Build 0)  -->
<svg version="1.1" id="Capa_1" xmlns="http://www.w3.org/2000/svg" xmlns:xlink="http://www.w3.org/1999/xlink" x="0px" y="0px"
	 viewBox="0 0 511.998 511.998" style="enable-background:new 0 0 511.998 511.998;" xml:space="preserve">
<g>
	<g>
		<path d="M282.04,279.278c-2.159-3.522-6.761-4.626-10.283-2.469c-9.518,5.834-21.347,5.835-30.868,0
			c-3.524-2.158-8.125-1.051-10.284,2.469c-2.158,3.522-1.053,8.125,2.469,10.284c7.17,4.394,15.208,6.591,23.248,6.591
			c8.039,0,16.078-2.197,23.249-6.591C283.092,287.403,284.197,282.799,282.04,279.278z"/>
	</g>
</g>
<g>
	<g>
		<path d="M374.901,358.405c-5.055-4.099-27.791-21.403-54.26-24.226l-4.586-2.047l23.351-14.647
			c15.411-9.667,27.523-23.383,35.191-39.558c0.789,0.047,40.75,0.236,41.815-39.36c0.411-15.257-8.871-28.911-22.091-35.418
			c3.158-11.029,8.599-33.731,8.724-59.633c0.234-48.087-18.165-83.918-53.208-103.735c-2.333-2.454-8.964-8.935-19.995-15.943
			c-3.519-2.236-8.186-1.195-10.422,2.324c-2.236,3.521-1.195,8.187,2.324,10.423c7.618,4.84,12.769,9.339,15.449,11.903
			c-0.839,6.688-3.42,22.67-10.336,39.493c-11.688,28.428-29.71,45.866-53.566,51.829c-25.204,6.3-49.676,7.119-72.742,2.432
			c-31.101-6.32-59.907-22.73-85.577-48.812c-4.663-4.738-1.448-8.689,1.653-10.081c7.95-3.57,14.438-8.902,19.451-15.483
			c13.049-17.126,40.2-52.763,106.346-52.763c17.878,0,34.85,2.642,50.446,7.854c3.952,1.323,8.234-0.814,9.555-4.769
			c1.321-3.955-0.813-8.233-4.769-9.555C280.514,2.904,261.932,0,242.424,0C168.797,0,137.45,41.143,124.064,58.713
			c-3.521,4.621-8.176,8.308-13.837,10.956c-6.201,2.901-10.9,8.638-11.847,15.462c-2.497,17.988,9.481,22.52,11.326,24.271
			c-10.933,58.371,6.98,93.373,7.234,94.108c-12.89,6.656-21.761,20.093-21.352,35.056c1.147,41.953,41.02,39.404,41.805,39.357
			c3.251,6.852,7.381,13.245,12.194,19.254c4.051,5.057,9.223,2.217,10.625,1.073c3.231-2.637,3.711-7.394,1.073-10.625
			c-7.211-8.831-12.352-18.901-15.281-29.929c-4.225-15.903-7.78-31.392-10.599-46.133c32.087-20.514,50.882-40.442,61.49-54.744
			c11.113,2.321,22.496,3.491,34.105,3.491c14.971-0.001,30.324-1.941,45.956-5.85c13.916-3.479,26.314-10.313,36.924-20.219
			c8.237,19.017,28.129,56.906,62.704,77.398c-2.816,14.71-6.365,30.172-10.586,46.056c-5.197,19.562-17.49,36.251-34.616,46.994
			l-55.555,34.848c-12.044,7.555-27.608,7.556-39.653,0l-51.369-32.222c-3.533-2.214-8.193-1.148-10.409,2.384
			c-2.216,3.533-1.149,8.193,2.384,10.409l19.164,12.021l-4.555,2.033c-26.746,2.802-49.708,20.423-54.517,24.341
			c0,0-50.768,15.842-50.768,65.052v59.815c0,15.785,12.841,28.627,28.627,28.627h282.538c15.786,0,28.627-12.842,28.627-28.627
			v-59.815C425.896,375.281,374.901,358.405,374.901,358.405z M112.095,238.752c0-8.15,4.103-15.553,10.565-19.949
			c2.726,13.741,10.156,43.461,10.258,43.825C121.173,261.02,112.095,250.93,112.095,238.752z M131.852,197.251
			c-4.653-13.946-13.011-44.965-7.845-75.11c18.022,14.546,37.364,25.083,57.737,31.53
			C171.989,165.707,156.366,181.129,131.852,197.251z M399.905,238.752c0,12.182-9.085,22.276-20.835,23.877
			c0.102-0.366,7.541-30.071,10.264-43.797C395.761,223.224,399.905,230.603,399.905,238.752z M324.431,123.053
			c6.115-8.086,11.392-17.487,15.737-28.142c5.412-13.272,8.337-25.846,9.882-34.583c24.405,17.616,36.721,45.756,36.62,83.843
			c-0.06,21.938-4.412,41.806-7.345,52.721C346.822,175.469,329.223,135.335,324.431,123.053z M211.781,340.982l16.637,10.435
			c8.377,5.256,17.98,7.883,27.582,7.883c9.602,0,19.204-2.627,27.582-7.883l16.638-10.436l4.206,1.877l-36.251,32.816h-24.451
			l-36.217-32.785L211.781,340.982z M270.05,390.631l-13.728,22.323l-13.728-22.323H270.05z M116.097,494.551
			c-7.385,0-13.394-6.008-13.394-13.395v-59.203c0-19.606,11.568-37.438,29.47-45.431l8.48-3.786l31.481,27.956l14.672,93.858
			H116.097z M221.663,494.551h-19.731l-12.335-78.35l13.75,12.21c11.034,9.571,20.968,5.612,21.857,5.392
			C221.278,454.328,220.879,474.497,221.663,494.551z M227.078,415.453c-1.504,2.252-3.811,3.682-6.497,4.028
			c-2.689,0.346-5.281-0.455-7.306-2.252l-59.451-52.795c8.048-5.503,22.199-13.701,37.646-15.887l37.733,34.158
			c-0.066,0.111-4.639,6.275,0.103,14.87l4.655,7.57L227.078,415.453z M276.008,494.551h-39.378
			c-1.641-39.841,2.54-59.773,7.244-73.288c0,0,3.247,7.178,12.449,7.178c9.201,0,12.472-7.221,12.472-7.221
			C276.653,443.806,276.783,474.478,276.008,494.551z M284.822,415.452c0,0-6.412-9.653-6.472-9.766l4.988-8.111
			c5.425-8.693,0.001-15.057-0.161-15.307l37.251-33.721c15.385,2.186,29.564,10.394,37.634,15.896l-59.439,52.785
			c-2.023,1.798-4.618,2.597-7.305,2.252C288.633,419.134,286.325,417.704,284.822,415.452z M409.298,481.156h-0.001
			c0,7.385-6.008,13.395-13.395,13.395H290.98c1.115-27.946-0.523-45.197-3.459-60.565c0.623,0.131,9.51,4.132,21.033-5.576
			l13.864-12.312l-8.454,56.093c-0.615,4.084,2.196,7.894,6.28,8.509c0.379,0.057,7.513,0.111,8.509-6.28l11.099-73.638
			c0.009-0.061,0.01-0.12,0.018-0.18l31.411-27.894l8.546,3.816c17.903,7.993,29.471,25.825,29.471,45.431V481.156z"/>
	</g>
</g>
<g>
	<g>
		<circle cx="201.46" cy="207.672" r="9.971"/>
	</g>
</g>
<g>
	<g>
		<circle cx="311.069" cy="207.173" r="10.041"/>
	</g>
</g>
<g>
</g>
<g>
</g>
<g>
</g>
<g>
</g>
<g>
</g>
<g>
</g>
<g>
</g>
<g>
</g>
<g>
</g>
<g>
</g>
<g>
</g>
<g>
</g>
<g>
</g>
<g>
</g>
<g>
</g>
</svg>
