<?xml version="1.0" encoding="iso-8859-1"?>
<!-- Generator: Adobe Illustrator 19.0.0, SVG Export Plug-In . SVG Version: 6.00 Build 0)  -->
<svg xmlns="http://www.w3.org/2000/svg" xmlns:xlink="http://www.w3.org/1999/xlink" version="1.1" id="Layer_1" x="0px" y="0px" viewBox="0 0 469.333 469.333" style="enable-background:new 0 0 469.333 469.333;" xml:space="preserve" width="512px" height="512px">
<g>
	<g>
		<path d="M467.074,366.771c-2.021-2.594-5.125-4.104-8.406-4.104H213.334v-21.333h224c5.896,0,10.667-4.771,10.667-10.667    c0-216.669-193.069-292.65-234.667-306.5v-13.5C213.334,4.771,208.563,0,202.667,0h-64c-2.833,0-5.542,1.125-7.542,3.125    l-21.333,21.333c-4.167,4.167-4.167,10.917,0,15.083l21.333,21.333c2,2,4.708,3.125,7.542,3.125h53.333v49.583L23.667,324    c-2.563,3.208-3.052,7.594-1.281,11.292c1.781,3.688,5.51,6.042,9.615,6.042h160v21.333H10.667    c-5.896,0-10.667,4.771-10.667,10.667v53.333c0,23.531,19.135,42.667,42.667,42.667l306.729-0.021    c56.656,0,105.844-38.406,119.615-93.385C469.813,372.74,469.095,369.365,467.074,366.771z M213.334,46.531    C261.563,63.26,420.668,132.552,426.501,320H213.334V46.531z M143.084,42.667L132.417,32l10.667-10.667h48.917V32v10.667H143.084z     M54.199,320l137.802-172.26V320H54.199z M349.397,447.979L42.667,448c-11.76,0-21.333-9.573-21.333-21.333V384l422.688,0.031    C428.699,422.281,391.543,447.979,349.397,447.979z" fill="#ff5858"/>
	</g>
</g>
<g>
</g>
<g>
</g>
<g>
</g>
<g>
</g>
<g>
</g>
<g>
</g>
<g>
</g>
<g>
</g>
<g>
</g>
<g>
</g>
<g>
</g>
<g>
</g>
<g>
</g>
<g>
</g>
<g>
</g>
</svg>
