<?xml version="1.0" encoding="iso-8859-1"?>
<!-- Generator: Adobe Illustrator 19.0.0, SVG Export Plug-In . SVG Version: 6.00 Build 0)  -->
<svg version="1.1" id="Capa_1" xmlns="http://www.w3.org/2000/svg" xmlns:xlink="http://www.w3.org/1999/xlink" x="0px" y="0px"
	 viewBox="0 0 463.001 463.001" style="enable-background:new 0 0 463.001 463.001;" xml:space="preserve">
<path d="M387.841,64.615c-35.618-29.859-82.345-46.928-132.274-48.486V7.5c0-4.143-3.357-7.5-7.5-7.5s-7.5,3.357-7.5,7.5v8.629
	c-49.93,1.557-96.656,18.627-132.274,48.486C70.514,96.285,49.709,138.506,49.709,183.5c0,2.971,1.754,5.662,4.472,6.861
	c2.718,1.2,5.889,0.68,8.083-1.32c11.812-10.775,34.254-17.47,58.564-17.47s46.752,6.694,58.564,17.47
	c2.863,2.611,7.246,2.611,10.109,0c10.586-9.657,29.71-16.031,51.064-17.252V368h-25.426l-23.572-33h16.498
	c4.143,0,7.5-3.357,7.5-7.5s-3.357-7.5-7.5-7.5H97.877l-38.685-54.159c-3.647-5.107-9.066-8.489-15.26-9.521
	c-6.194-1.037-12.421,0.408-17.523,4.059c-10.544,7.531-12.994,22.237-5.462,32.782l80.001,112.002
	c0.97,1.357,2.079,2.585,3.29,3.688l-7.569,45.416c-0.681,4.086,2.08,7.95,6.165,8.632c0.418,0.069,0.833,0.103,1.242,0.103
	c3.601,0,6.777-2.6,7.39-6.268l6.966-41.796c0.543,0.038,1.089,0.063,1.637,0.063h120.498v40.5c0,4.143,3.357,7.5,7.5,7.5
	s7.5-3.357,7.5-7.5V415h146.146l6.956,41.733c0.612,3.668,3.789,6.268,7.39,6.268c0.409,0,0.824-0.033,1.242-0.103
	c4.085-0.682,6.846-4.546,6.165-8.632l-6.548-39.288c12.566-0.449,22.652-10.805,22.652-23.479c0-12.958-10.542-23.5-23.5-23.5
	H255.567V171.789c21.354,1.22,40.478,7.595,51.064,17.252c2.863,2.611,7.246,2.611,10.109,0
	c11.813-10.775,34.254-17.47,58.564-17.47s46.752,6.694,58.564,17.47c1.409,1.285,3.221,1.959,5.057,1.959
	c1.022,0,2.054-0.209,3.026-0.639c2.718-1.199,4.472-3.891,4.472-6.861C446.424,138.506,425.62,96.285,387.841,64.615z M173.136,335
	l23.572,33h-64.546l-23.571-33H173.136z M424.569,391.5c0,4.687-3.813,8.5-8.5,8.5h-296c-2.738,0-5.324-1.331-6.917-3.559l-80-112
	c-1.319-1.848-1.841-4.1-1.468-6.339s1.596-4.199,3.447-5.521c1.454-1.041,3.161-1.584,4.916-1.584c0.471,0,0.944,0.039,1.418,0.117
	c2.24,0.374,4.201,1.597,5.521,3.444l75.215,105.301c1.407,1.971,3.681,3.141,6.103,3.141h82.969c0.006,0,0.011,0.001,0.017,0.001
	c0.004,0,0.009-0.001,0.013-0.001h204.767C420.755,383,424.569,386.813,424.569,391.5z M286.089,72.856
	c10.403,26,16.635,59.769,17.866,96.221c-14.76-7.958-34.564-12.506-55.889-12.506s-41.129,4.548-55.889,12.506
	c1.231-36.452,7.463-70.22,17.866-96.221C220.688,46.256,234.546,31,248.067,31C261.587,31,275.446,46.256,286.089,72.856z
	 M65.564,168.719c7.918-68.189,70.061-123.375,150.021-135.312c-7.258,8.433-13.836,19.805-19.467,33.878
	c-11.102,27.747-17.721,63.579-18.955,102.033c-14.806-8.107-34.794-12.746-56.334-12.746
	C99.812,156.571,80.254,160.975,65.564,168.719z M375.305,156.571c-21.54,0-41.528,4.639-56.334,12.746
	c-1.235-38.454-7.854-74.286-18.955-102.033c-5.631-14.073-12.209-25.444-19.467-33.878
	c79.96,11.938,142.103,67.124,150.021,135.312C415.879,160.975,396.322,156.571,375.305,156.571z"/>
<g>
</g>
<g>
</g>
<g>
</g>
<g>
</g>
<g>
</g>
<g>
</g>
<g>
</g>
<g>
</g>
<g>
</g>
<g>
</g>
<g>
</g>
<g>
</g>
<g>
</g>
<g>
</g>
<g>
</g>
</svg>
