<?xml version="1.0"?>
<svg xmlns="http://www.w3.org/2000/svg" xmlns:xlink="http://www.w3.org/1999/xlink" version="1.1" id="Capa_1" x="0px" y="0px" viewBox="0 0 498.784 498.784" style="enable-background:new 0 0 498.784 498.784;" xml:space="preserve" width="512px" height="512px" class=""><g><path style="fill:#FFFFFF" d="M169.392,354.784c0,8.84,7.16,16,16,16h128c8.84,0,16-7.16,16-16v-112c0-8.84-7.16-16-16-16h-128  c-8.84,0-16,7.16-16,16V354.784z" data-original="#FFCB57" class="active-path" data-old_color="#ffffff"/><path style="fill:#3E3E3E" d="M249.392,498.784c-127.48,0-248-198.28-248-408v-8h8c146.84,0,233.768-77.144,234.624-77.928  L249.384,0l5.384,4.856c0.856,0.784,87.784,77.928,234.624,77.928h8v8C497.392,300.504,376.872,498.784,249.392,498.784z   M17.456,98.712c3.008,195.056,116.424,384.072,231.936,384.072S478.32,293.768,481.328,98.712  c-129.352-2.336-210.776-60.424-231.936-77.464C228.232,38.288,146.808,96.376,17.456,98.712z" data-original="#E56565" class="" data-old_color="#3e3e3e"/><g>
	<path style="fill:#3E3E3E" d="M249.392,250.784c-17.648,0-32,14.352-32,32c0,7.728,2.872,15.208,8,21.04v42.96h48v-42.96   c5.128-5.832,8-13.312,8-21.04C281.392,265.136,267.04,250.784,249.392,250.784z M260.032,294.616l-2.64,2.384v33.784h-16V297   l-2.64-2.384c-3.456-3.112-5.36-7.32-5.36-11.832c0-8.824,7.176-16,16-16s16,7.176,16,16   C265.392,287.296,263.488,291.504,260.032,294.616z" data-original="#3F3A34" class="" data-old_color="#3e3e3e"/>
	<path style="fill:#3E3E3E" d="M257.392,434.784v-56h56c13.232,0,24-10.768,24-24v-112c0-10.416-6.712-19.216-16-22.528v-41.472   c0-36.992-28.056-67.536-64-71.528V82.784h-16v24.472c-35.944,4-64,34.536-64,71.528v41.472c-9.288,3.312-16,12.112-16,22.528v112   c0,13.232,10.768,24,24,24h56v56H257.392z M249.392,122.784c30.872,0,56,25.12,56,56v40h-16v-40c0-22.056-17.944-40-40-40   s-40,17.944-40,40v40h-16v-40C193.392,147.904,218.52,122.784,249.392,122.784z M273.392,218.784h-48v-40c0-13.232,10.768-24,24-24   s24,10.768,24,24V218.784z M177.392,354.784v-112c0-4.408,3.584-8,8-8h128c4.416,0,8,3.592,8,8v112c0,4.416-3.584,8-8,8h-128   C180.976,362.784,177.392,359.2,177.392,354.784z" data-original="#3F3A34" class="" data-old_color="#3e3e3e"/>
	<path style="fill:#3E3E3E" d="M249.392,60.744c32.048,21.424,95,55.56,183.016,66.488l1.968-15.872   c-88.992-11.048-151.24-46.632-180.432-66.856l-4.552-3.176l-4.552,3.16c-29.184,20.224-91.44,55.808-180.432,66.856l1.968,15.872   C154.392,116.296,217.344,82.16,249.392,60.744z" data-original="#3F3A34" class="" data-old_color="#3e3e3e"/>
	<path style="fill:#3E3E3E" d="M448.76,114.408c-3.976,84.488-28.32,167.448-68.544,233.592   c-39.144,64.36-88.04,102.784-130.824,102.784S157.712,412.36,118.568,348C78.344,281.848,54,198.896,50.024,114.408L34.04,115.16   c4.104,87.12,29.264,172.76,70.856,241.16c42.064,69.168,96.08,110.464,144.496,110.464s102.432-41.296,144.496-110.472   c41.592-68.4,66.76-154.04,70.856-241.16L448.76,114.408z" data-original="#3F3A34" class="" data-old_color="#3e3e3e"/>
</g></g> </svg>
