<?xml version="1.0"?>
<svg xmlns="http://www.w3.org/2000/svg" xmlns:xlink="http://www.w3.org/1999/xlink" version="1.1" id="Layer_1" x="0px" y="0px" viewBox="0 0 512 512" style="enable-background:new 0 0 512 512;" xml:space="preserve" width="512px" height="512px" class=""><g><g>
	<g>
		<path d="M480,181.333h-10.667V128c0-17.643-14.357-32-32-32H74.667c-17.643,0-32,14.357-32,32v53.333H32    c-17.643,0-32,14.357-32,32v128c0,17.643,14.357,32,32,32h10.667v32c0,5.888,4.779,10.667,10.667,10.667h64    c5.888,0,10.667-4.779,10.667-10.667v-32h256v32c0,5.888,4.779,10.667,10.667,10.667h64c5.888,0,10.667-4.779,10.667-10.667v-32    H480c17.643,0,32-14.357,32-32v-128C512,195.691,497.643,181.333,480,181.333z M64,128c0-5.888,4.8-10.667,10.667-10.667h362.667    C443.2,117.333,448,122.112,448,128v55.296c-12.395,4.416-21.333,16.149-21.333,30.037v32H85.333v-32    c0-13.888-8.939-25.621-21.333-30.037V128z M426.667,266.667V288H85.333v-21.333H426.667z M106.667,394.667H64v-21.333h42.667    V394.667z M448,394.667h-42.667v-21.333H448V394.667z M490.667,341.333c0,5.888-4.8,10.667-10.667,10.667h-21.333h-64H117.333h-64    H32c-5.867,0-10.667-4.779-10.667-10.667v-128c0-5.888,4.8-10.667,10.667-10.667h21.333c5.867,0,10.667,4.779,10.667,10.667V256    v42.667c0,5.888,4.779,10.667,10.667,10.667h362.667c5.888,0,10.667-4.779,10.667-10.667V256v-42.667    c0-5.888,4.8-10.667,10.667-10.667H480c5.867,0,10.667,4.779,10.667,10.667V341.333z" data-original="#000000" class="active-path" data-old_color="#9F4F4F" fill="#343434"/>
	</g>
</g></g> </svg>
