<?xml version="1.0"?>
<svg xmlns="http://www.w3.org/2000/svg" xmlns:xlink="http://www.w3.org/1999/xlink" version="1.1" id="Capa_1" x="0px" y="0px" width="512px" height="512px" viewBox="0 0 25 25" style="enable-background:new 0 0 25 25;" xml:space="preserve" class=""><g><g>
	<path d="M14.867,15.429c-0.258,0.12-0.495,0.146-0.621,0.021c-0.133-0.133-0.102-0.381,0.031-0.65l-1.452-1.454   c-0.27,0.136-0.519,0.166-0.65,0.035c-0.136-0.137-0.098-0.399,0.05-0.682l-1.42,1.42c0.089,0.31,0.078,0.554-0.059,0.688   c-0.215,0.217-0.704,0.12-1.312-0.205c0.327,0.606,0.424,1.096,0.207,1.312c-0.245,0.244-0.836,0.089-1.559-0.349   c0.067,0.168,0.08,0.297,0.019,0.358c-0.214,0.214-1.183-0.407-2.165-1.391c-0.982-0.982-1.604-1.951-1.391-2.166   c0.062-0.062,0.19-0.048,0.359,0.019c-0.438-0.723-0.594-1.313-0.349-1.559c0.216-0.216,0.704-0.12,1.312,0.208   C5.541,10.426,5.444,9.936,5.66,9.721c0.136-0.137,0.379-0.146,0.689-0.058L9.66,6.352C9.571,6.04,9.582,5.797,9.718,5.662   c0.217-0.217,0.706-0.12,1.314,0.207c-0.328-0.607-0.425-1.097-0.208-1.313c0.243-0.244,0.833-0.09,1.555,0.348   c-0.065-0.17-0.081-0.299-0.018-0.36c0.214-0.215,1.186,0.409,2.168,1.393c0.984,0.982,1.607,1.954,1.394,2.169   c-0.063,0.063-0.19,0.047-0.36-0.019C16,8.81,16.154,9.399,15.911,9.643c-0.218,0.216-0.706,0.119-1.313-0.208   c0.327,0.609,0.424,1.097,0.207,1.313c-0.136,0.136-0.379,0.147-0.688,0.058l-1.104,1.104c0.282-0.147,0.546-0.186,0.681-0.049   c0.131,0.129,0.101,0.377-0.031,0.647l1.452,1.454c0.271-0.132,0.521-0.163,0.651-0.032c0.125,0.127,0.101,0.364-0.021,0.621   l6.545,5.707c1.692-2.133,2.71-4.824,2.71-7.759C25,5.597,19.404,0,12.499,0C5.595,0,0,5.597,0,12.499C0,19.402,5.595,25,12.499,25   c3.097,0,5.922-1.131,8.104-2.993L14.867,15.429z" data-original="#000000" class="active-path" data-old_color="#4F1616" fill="#161616"/>
</g></g> </svg>
