<?xml version="1.0" encoding="iso-8859-1"?>
<!-- Generator: Adobe Illustrator 19.0.0, SVG Export Plug-In . SVG Version: 6.00 Build 0)  -->
<svg xmlns="http://www.w3.org/2000/svg" xmlns:xlink="http://www.w3.org/1999/xlink" version="1.1" id="Capa_1" x="0px" y="0px" viewBox="0 0 431.616 431.616" style="enable-background:new 0 0 431.616 431.616;" xml:space="preserve" width="512px" height="512px">
<g>
	<g>
		<path d="M411.392,35.84H326.4V0h-30.72v35.84H135.936V0h-30.72v35.84H20.224c-8.704,0-15.36,6.656-15.36,15.36v365.056    c0,8.704,6.656,15.36,15.36,15.36h391.168c8.704,0,15.36-6.656,15.36-15.36V51.2C426.752,43.008,420.096,35.84,411.392,35.84z     M109.824,352.768c-16.896,0-30.208-13.312-30.208-30.208s13.312-30.208,30.208-30.208s30.208,13.312,30.208,30.208    S126.72,352.768,109.824,352.768z M109.824,262.656c-16.896,0-30.208-13.312-30.208-30.208s13.312-30.208,30.208-30.208    s30.208,13.312,30.208,30.208S126.72,262.656,109.824,262.656z M215.808,352.768c-16.896,0-30.208-13.312-30.208-30.208    s13.312-30.208,30.208-30.208s30.208,13.312,30.208,30.208C246.016,338.944,232.704,352.768,215.808,352.768z M215.808,262.656    c-16.896,0-30.208-13.312-30.208-30.208s13.312-30.208,30.208-30.208s30.208,13.312,30.208,30.208    C246.016,248.832,232.704,262.656,215.808,262.656z M321.792,352.768c-16.896,0-30.208-13.312-30.208-30.208    s13.312-30.208,30.208-30.208c16.896,0,30.208,13.312,30.208,30.208S338.688,352.768,321.792,352.768z M321.792,262.656    c-16.896,0-30.208-13.312-30.208-30.208s13.312-30.208,30.208-30.208c16.896,0,30.208,13.312,30.208,30.208    S338.688,262.656,321.792,262.656z M396.032,120.832v6.144H35.584V66.56h69.632v36.864h30.72V66.56H295.68v36.864h30.72V66.56    h69.632V120.832z" fill="#ffffff"/>
	</g>
</g>
<g>
</g>
<g>
</g>
<g>
</g>
<g>
</g>
<g>
</g>
<g>
</g>
<g>
</g>
<g>
</g>
<g>
</g>
<g>
</g>
<g>
</g>
<g>
</g>
<g>
</g>
<g>
</g>
<g>
</g>
</svg>
