<?xml version="1.0" encoding="iso-8859-1"?>
<!-- Generator: Adobe Illustrator 19.0.0, SVG Export Plug-In . SVG Version: 6.00 Build 0)  -->
<svg version="1.1" id="Capa_1" xmlns="http://www.w3.org/2000/svg" xmlns:xlink="http://www.w3.org/1999/xlink" x="0px" y="0px"
	 viewBox="0 0 512 512" style="enable-background:new 0 0 512 512;" xml:space="preserve">
<g>
	<g>
		<path d="M326.975,271.49c-2.113-2.931-5.95-3.884-9.128-2.471c-3.687-4.71-7.868-6.721-11.108-7.546
			c-5.998-1.524-11.555,0.125-15.253,1.847c-3.697-1.722-9.254-3.371-15.253-1.847c-3.24,0.824-7.422,2.835-11.109,7.548
			c-3.177-1.417-7.018-0.465-9.133,2.469c-2.421,3.361-1.66,8.05,1.701,10.471l1.906,1.373c-0.317,1.48-0.613,3.184-0.812,5.036
			c-0.909,8.453,0.676,15.896,4.583,21.523c5.504,7.929,14.963,11.948,28.112,11.948c13.15,0,22.608-4.02,28.113-11.948
			c6.2-8.931,5.227-19.96,3.792-26.575l1.886-1.359C328.635,279.538,329.396,274.851,326.975,271.49z M279.893,276.022
			c2.633-0.698,6.132,1.236,7.094,1.926c2.671,2.084,6.233,2.074,8.943,0.042c1.018-0.732,4.515-2.67,7.151-1.968
			c0.927,0.246,1.747,0.87,2.468,1.661l-14.065,10.135l-14.062-10.132C278.143,276.894,278.965,276.268,279.893,276.022z
			 M307.252,301.369c-2.542,3.63-7.849,5.471-15.769,5.471c-7.921,0-13.226-1.841-15.769-5.471
			c-1.558-2.225-2.122-5.115-2.174-7.991l13.558,9.769c1.309,0.943,2.847,1.415,4.384,1.415s3.075-0.472,4.384-1.415l13.559-9.77
			C309.376,296.254,308.811,299.144,307.252,301.369z"/>
	</g>
</g>
<g>
	<g>
		<path d="M246.948,206.842c-10.247-8.751-25.12-8.751-35.366,0c-3.149,2.69-3.522,7.424-0.832,10.575
			c2.69,3.151,7.424,3.524,10.575,0.833c4.601-3.93,11.024-3.608,15.882,0c4.879,3.624,9.091,0.904,10.575-0.833
			C250.472,214.267,250.099,209.533,246.948,206.842z"/>
	</g>
</g>
<g>
	<g>
		<path d="M371.392,206.842c-10.247-8.751-25.12-8.751-35.366,0c-3.149,2.69-3.522,7.424-0.832,10.575
			c2.691,3.151,7.424,3.524,10.575,0.833c4.601-3.93,11.024-3.608,15.882,0c4.879,3.624,9.091,0.904,10.575-0.833
			C374.915,214.267,374.542,209.533,371.392,206.842z"/>
	</g>
</g>
<g>
	<g>
		<path d="M427.127,364.107v-22.885h7.526c9.141,0,16.576-7.437,16.576-16.576v-10.305c0-4.142-3.358-7.5-7.501-7.5
			c-4.142,0-7.5,3.358-7.5,7.5v10.305c0,0.869-0.707,1.575-1.575,1.575h-11.851c-0.869,0-1.575-0.707-1.575-1.575
			c0,0-0.564-25.832,0.422-31.824c2.227,0.74,4.605,1.147,7.078,1.147c12.408,0,22.502-10.094,22.502-22.502
			c0-5.72-2.149-10.945-5.677-14.919c3.427-5.922,5.272-12.678,5.272-19.617c0-15.062-8.695-28.546-21.685-35.058
			c6.456-19.557,21.485-75.011,1.864-119.578c-10.128-23.005-27.946-39.681-52.939-49.618c-11.244-9.813-35.19-22.154-64.804-28.431
			c-27.228-5.771-69.643-8.534-117.077,11.096c-46.02,19.043-81.202,65.038-96.524,126.193c-1.007,4.018,1.434,8.092,5.452,9.099
			c4.019,1.003,8.093-1.434,9.099-5.453c20.104-80.239,68.035-107.836,87.709-115.977c43.884-18.159,83.079-15.614,108.23-10.283
			c27.358,5.799,46.387,16.246,55.262,22.837c-2.675,8.278-9.606,26.976-23.007,47.108c-23.772,35.71-55.626,58.863-94.678,68.812
			c-22.62,5.762-40.295,18.428-51.089,38.45c-34.648,64.272-7.648,140.166-4.664,151.541l-30.8,13.751
			c-23.354,10.427-38.444,33.69-38.444,59.265v76.315H87.943c-9.927,0-18.552-7.315-20.064-17.015
			c-3.038-19.498-1.299-48.882,24.238-78.142c50.641-58.027,32.385-124.967,19.055-173.843c-3.609-13.236-4.553-31.086-2.658-50.264
			c0.408-4.122-2.604-7.795-6.726-8.203c-4.124-0.397-7.795,2.604-8.202,6.727c-2.101,21.257-1.024,40.514,3.113,55.688
			c16.125,59.122,26.059,111.971-15.885,160.032c-29.335,33.613-31.286,67.667-27.757,90.316C55.739,499.506,70.411,512,87.943,512
			h42.287h301.579c15.679,0,28.435-12.756,28.435-28.436v-62.88C460.244,397.11,447.419,375.512,427.127,364.107z M428.728,278.968
			c-4.136,0-7.501-3.364-7.501-7.501c0-4.136,3.364-7.5,7.501-7.5c4.136,0,7.5,3.364,7.5,7.5
			C436.228,275.604,432.864,278.968,428.728,278.968z M435.824,236.93c0,4.377-1.187,8.636-3.391,12.346
			c-1.206-0.201-7.475-2.207-15.203,2.859c3.064-12.042,5.734-23.814,7.991-35.184C431.667,221.355,435.824,228.758,435.824,236.93z
			 M378.721,49.311c17.966,8.599,30.922,21.693,38.554,39.028c11.015,25.02,9.24,54.826,5.81,75.425
			c-2.289,13.748-5.539,25.186-7.805,32.214c-48.011-24.194-66.471-71.35-70.818-84.542
			C348.216,106.751,368.444,81.852,378.721,49.311z M247.134,339.467l16.688,10.468c8.404,5.271,18.032,7.907,27.665,7.907
			c9.63,0,19.262-2.636,27.665-7.907l16.688-10.468l37.847,16.898c-9.436,50.112-43.338,85.918-82.201,85.919
			c-38.863-0.001-72.766-35.804-82.202-85.917L247.134,339.467z M205.874,341.46c-1.896-7.525-4.517-19.134-6.593-32.848
			c2.972,2.416,32.553,21.258,32.553,21.258L205.874,341.46z M351.139,329.869l23.195-14.549
			c14.25-8.939,25.652-21.37,33.306-36.006c0.531,1.424,1.205,2.778,2,4.049c-2.223,3.537-3.413,7.633-3.413,11.933v29.352
			c0,5.074,2.297,9.617,5.899,12.66v19.791L351.139,329.869z M209.664,203.564c8.704-16.646,22.978-26.567,41.766-31.353
			c31.277-7.969,59.025-24.308,81.694-47.862c8.292,21.181,30.115,63.45,78.048,86.317c-2.782,14.468-6.28,29.664-10.425,45.265
			c-5.162,19.431-17.373,36.009-34.384,46.68l-55.183,34.614c-11.964,7.504-27.424,7.504-39.387,0l-55.183-34.614
			c-7.576-4.751-14.241-10.709-19.811-17.703C196.8,284.909,190.254,240.683,209.664,203.564z M137.731,496.997v-76.315
			c0-12.994,5.068-25.209,13.686-34.314c9.358,22.474,24.268,64.141,28.952,110.63H137.731z M445.244,483.562L445.244,483.562
			c-0.001,7.408-6.027,13.435-13.435,13.435H195.447c-4.805-50.37-20.819-94.702-31.741-120.101
			c1.164-0.636,31.532-14.259,31.532-14.259c11.729,55.394,51.042,94.645,96.248,94.646c45.205-0.001,84.519-39.254,96.248-94.648
			c0,0,30.369,13.624,31.533,14.26c-8.514,19.841-21.381,54.263-28.316,94.563c-0.702,4.083,2.038,7.961,6.12,8.665
			c0.431,0.074,7.262,1.31,8.665-6.12c6.872-36.44,17.651-68.099,25.815-87.643c8.623,9.108,13.694,21.325,13.694,34.323V483.562z"
			/>
	</g>
</g>
<g>
</g>
<g>
</g>
<g>
</g>
<g>
</g>
<g>
</g>
<g>
</g>
<g>
</g>
<g>
</g>
<g>
</g>
<g>
</g>
<g>
</g>
<g>
</g>
<g>
</g>
<g>
</g>
<g>
</g>
</svg>
