<?xml version="1.0" encoding="iso-8859-1"?>
<!-- Generator: Adobe Illustrator 19.0.0, SVG Export Plug-In . SVG Version: 6.00 Build 0)  -->
<svg version="1.1" id="Capa_1" xmlns="http://www.w3.org/2000/svg" xmlns:xlink="http://www.w3.org/1999/xlink" x="0px" y="0px"
	 viewBox="0 0 512.001 512.001" style="enable-background:new 0 0 512.001 512.001;" xml:space="preserve">
<path style="fill:#7D7072;" d="M256,74.431c-100.705,0-182.342,81.637-182.342,182.342S155.295,439.115,256,439.115
	s182.342-81.637,182.342-182.342S356.705,74.431,256,74.431z M256,408.21c-83.502,0-151.437-67.934-151.437-151.437
	S172.498,105.336,256,105.336s151.437,67.934,151.437,151.437S339.502,408.21,256,408.21z"/>
<g>
	<path style="fill:#635A5B;" d="M256,512L256,512c-8.534,0-15.453-6.918-15.453-15.453V15.453C240.547,6.918,247.466,0,256,0l0,0
		c8.534,0,15.453,6.918,15.453,15.453v481.095C271.453,505.082,264.534,512,256,512z"/>
	<path style="fill:#635A5B;" d="M74.981,437.02L74.981,437.02c-6.035-6.035-6.035-15.819,0-21.853L415.166,74.981
		c6.035-6.035,15.819-6.035,21.853,0l0,0c6.035,6.035,6.035,15.819,0,21.853L96.834,437.02
		C90.799,443.054,81.015,443.054,74.981,437.02z"/>
	<path style="fill:#635A5B;" d="M0,256L0,256c0-8.534,6.918-15.453,15.453-15.453h481.095c8.534,0,15.453,6.918,15.453,15.453l0,0
		c0,8.534-6.918,15.453-15.453,15.453H15.453C6.918,271.453,0,264.534,0,256z"/>
	<path style="fill:#635A5B;" d="M74.981,74.981L74.981,74.981c6.035-6.035,15.819-6.035,21.853,0l340.185,340.185
		c6.035,6.035,6.035,15.819,0,21.853l0,0c-6.035,6.035-15.819,6.035-21.853,0L74.981,96.834
		C68.946,90.799,68.946,81.015,74.981,74.981z"/>
</g>
<path style="fill:#FF5948;" d="M256,315.235c-32.236,0-58.463-26.226-58.463-58.463S223.764,198.31,256,198.31
	s58.463,26.226,58.463,58.463S288.236,315.235,256,315.235z"/>
<path style="fill:#D44A3C;" d="M256,198.31c-5.349,0-10.527,0.736-15.453,2.088c24.759,6.795,43.01,29.487,43.01,56.375
	c0,26.887-18.251,49.579-43.01,56.374c4.926,1.352,10.104,2.088,15.453,2.088c32.236,0,58.463-26.226,58.463-58.463
	C314.463,224.536,288.236,198.31,256,198.31z"/>
<g>
</g>
<g>
</g>
<g>
</g>
<g>
</g>
<g>
</g>
<g>
</g>
<g>
</g>
<g>
</g>
<g>
</g>
<g>
</g>
<g>
</g>
<g>
</g>
<g>
</g>
<g>
</g>
<g>
</g>
</svg>
