<?xml version="1.0" encoding="iso-8859-1"?>
<!-- Generator: Adobe Illustrator 19.0.0, SVG Export Plug-In . SVG Version: 6.00 Build 0)  -->
<svg version="1.1" id="Capa_1" xmlns="http://www.w3.org/2000/svg" xmlns:xlink="http://www.w3.org/1999/xlink" x="0px" y="0px"
	 viewBox="0 0 512.001 512.001" style="enable-background:new 0 0 512.001 512.001;" xml:space="preserve">
<path style="fill:#76D1E3;" d="M276.536,219.03c0,0-0.981-65.249,63.372-122.828C388.718,52.53,369.226,16.5,251.475,16.5
	c-72.897,0-49.594,163.872-4.393,209.025C266.916,245.338,276.536,219.03,276.536,219.03z"/>
<path style="fill:#5AB9CC;" d="M303.012,19.47c40.821,13.568,39.568,39.994,5.99,70.037
	c-64.353,57.579-63.372,122.828-63.372,122.828s-0.389,11.353,1.452,13.192c19.833,19.812,29.453-6.496,29.453-6.496
	s-0.981-65.249,63.372-122.828C380.446,59.932,373.862,28.935,303.012,19.47z"/>
<path style="fill:#76D1E3;" d="M197.493,313.193c0,0-56.015,33.474-138.054,6.53c-62.225-20.436-83.68,14.46-24.805,116.439
	c36.448,63.133,166.709-38.985,183.21-100.708C225.086,308.37,197.493,313.193,197.493,313.193z"/>
<path style="fill:#5AB9CC;" d="M197.493,313.193c0,0-5.831,3.481-16.473,7.293c1.595,3.359,1.981,8.151,0.159,14.967
	c-11.313,42.314-76.087,103.608-127.45,117.635c50.073,19.687,149.814-64.143,164.115-117.635
	C225.086,308.371,197.493,313.193,197.493,313.193z"/>
<path style="fill:#76D1E3;" d="M318.559,334.567c0,0,56.996,31.775,74.682,116.298c13.415,64.109,54.362,65.242,113.237-36.737
	c36.448-63.133-117.115-124.887-178.818-108.317C300.586,313.082,318.559,334.567,318.559,334.567z"/>
<path style="fill:#5AB9CC;" d="M336.944,303.985c70.253,7.332,168.574,58.271,138.628,110.143
	c-24.291,42.074-45.526,66.582-63.039,76.371c20.351,15.836,52.76-5.035,93.944-76.371
	C541.212,353.963,403.385,295.052,336.944,303.985z"/>
<circle style="fill:#266FAB;" cx="264.191" cy="289.051" r="70.5"/>
<path style="fill:#FF5948;" d="M264.196,328.452c-21.723,0-39.397-17.674-39.397-39.397s17.674-39.397,39.397-39.397
	s39.397,17.674,39.397,39.397C303.593,310.778,285.92,328.452,264.196,328.452z"/>
<path style="fill:#D44A3C;" d="M264.196,249.658c-5.521,0-10.777,1.146-15.551,3.205c14.011,6.044,23.845,19.989,23.845,36.192
	s-9.834,30.148-23.845,36.192c4.774,2.059,10.031,3.205,15.551,3.205c21.723,0,39.397-17.674,39.397-39.397
	C303.593,267.332,285.92,249.658,264.196,249.658z"/>
<g>
</g>
<g>
</g>
<g>
</g>
<g>
</g>
<g>
</g>
<g>
</g>
<g>
</g>
<g>
</g>
<g>
</g>
<g>
</g>
<g>
</g>
<g>
</g>
<g>
</g>
<g>
</g>
<g>
</g>
</svg>
