<?xml version="1.0" encoding="iso-8859-1"?>
<!-- Generator: Adobe Illustrator 18.0.0, SVG Export Plug-In . SVG Version: 6.00 Build 0)  -->
<!DOCTYPE svg PUBLIC "-//W3C//DTD SVG 1.1//EN" "http://www.w3.org/Graphics/SVG/1.1/DTD/svg11.dtd">
<svg version="1.1" id="Capa_1" xmlns="http://www.w3.org/2000/svg" xmlns:xlink="http://www.w3.org/1999/xlink" x="0px" y="0px"
	 viewBox="0 0 436.304 436.304" style="enable-background:new 0 0 436.304 436.304;" xml:space="preserve">
<g>
	<path d="M433.473,420.754l-72.913-57.997c-1.327-1.056-2.973-1.63-4.669-1.63H237.639l-35.048-27.877h27.722l19.441,16.372
		c1.407,1.185,3.121,1.763,4.827,1.763c2.136,0,4.258-0.908,5.741-2.669c2.668-3.168,2.262-7.9-0.906-10.568l-21.535-18.135
		c-1.353-1.139-3.063-1.763-4.831-1.763H96.597l-83.855-81.952c-2.963-2.896-7.711-2.841-10.606,0.122
		c-2.895,2.962-2.84,7.711,0.122,10.606l72.878,71.225H63.038c-4.143,0-7.5,3.358-7.5,7.5s3.357,7.5,7.5,7.5h27.446l38.099,37.235
		l-63.198,50.27c-3.241,2.579-3.779,7.297-1.2,10.539c1.48,1.861,3.667,2.832,5.874,2.832c1.636,0,3.284-0.533,4.664-1.631
		l70.863-56.367h207.685l70.863,56.367c1.38,1.098,3.027,1.631,4.664,1.631c2.207,0,4.394-0.97,5.874-2.832
		C437.252,428.051,436.714,423.333,433.473,420.754z M178.494,333.249l35.049,27.877H140.47l-28.525-27.877H178.494z"/>
	<path d="M23.474,144.252h165.171v159.428c0,4.142,3.357,7.5,7.5,7.5s7.5-3.358,7.5-7.5V144.252h165.17
		c2.384,0,4.626-1.133,6.039-3.053s1.83-4.396,1.123-6.673c-11.665-37.542-35.515-71.253-67.154-94.922
		C276.094,15.121,237.13,2.179,196.144,2.179c-40.986,0-79.949,12.941-112.678,37.424c-31.64,23.669-55.489,57.38-67.155,94.922
		c-0.707,2.276-0.291,4.753,1.123,6.673C18.848,143.118,21.09,144.252,23.474,144.252z M92.452,51.615
		c30.114-22.528,65.971-34.436,103.692-34.436s73.577,11.908,103.692,34.436c26.367,19.725,46.854,47.016,58.463,77.637H33.988
		C45.598,98.63,66.085,71.339,92.452,51.615z"/>
	<path d="M196.144,382.179c-4.143,0-7.5,3.358-7.5,7.5v36c0,4.142,3.357,7.5,7.5,7.5s7.5-3.358,7.5-7.5v-36
		C203.644,385.537,200.287,382.179,196.144,382.179z"/>
</g>
<g>
</g>
<g>
</g>
<g>
</g>
<g>
</g>
<g>
</g>
<g>
</g>
<g>
</g>
<g>
</g>
<g>
</g>
<g>
</g>
<g>
</g>
<g>
</g>
<g>
</g>
<g>
</g>
<g>
</g>
</svg>
