<?xml version="1.0"?>
<svg xmlns="http://www.w3.org/2000/svg" height="512px" viewBox="0 -38 504.49151 504" width="512px" class=""><g><path d="m6.996094 33.648438c69.855468 11.75 106.542968 24.070312 126.6875 42.804687 6.261718 6.058594 11.75 12.863281 16.34375 20.261719 10.59375 16.015625 11.238281 38.148437 11.875 59.59375.117187 4.070312.246094 8.058594.421875 11.945312 2.734375 52.878906 27.480469 98.605469 66.207031 122.234375 30.324219 17.460938 61.859375 32.738281 94.359375 45.71875 2.308594.984375 4.125 2.855469 5.035156 5.195313.964844 2.359375.941407 5.007812-.066406 7.351562l-18.785156 42.570313c-3.574219 8.121093-2.820313 17.496093 2.007812 24.9375 4.828125 7.445312 13.082031 11.953125 21.957031 11.996093h28.957032c7.039062.023438 13.789062-2.804687 18.707031-7.839843 4.917969-5.035157 7.585937-11.847657 7.394531-18.886719-.421875-35.195312-3.480468-70.3125-9.148437-105.050781-5.109375-18.941407-11.9375-37.375-20.402344-55.070313 15.574219-8.453125 30.371094-18.265625 44.222656-29.316406 26.207031-21.675781 47.519531-48.660156 62.53125-79.175781.449219-.632813.804688-1.324219 1.058594-2.058594 17.304687-34.820313 30.003906-71.746094 37.769531-109.84375 1.378906-6.625-1.242187-13.441406-6.699218-17.4375-5.460938-3.996094-12.75-4.433594-18.648438-1.121094l-186.789062 105.917969c-19.402344-35.253906-50.046876-87.988281-65.242188-98.113281-28.425781-19.09375-65.695312.949219-75.238281 6.714843h-143.132813c-4.359375.007813-7.988281 3.355469-8.3515622 7.699219-.3593748 4.347657 2.6679682 8.246094 6.9687502 8.972657zm355.484375 266.128906c5.480469 33.789062 8.433593 67.9375 8.832031 102.167968.078125 2.511719-.871094 4.949219-2.628906 6.746094-1.757813 1.800782-4.171875 2.804688-6.6875 2.777344h-28.957032c-3.179687.015625-6.140624-1.605469-7.839843-4.289062-1.808594-2.699219-2.097657-6.140626-.765625-9.105469l18.820312-42.597657c2.789063-6.433593 2.902344-13.714843.3125-20.234374-2.585937-6.519532-7.667968-11.738282-14.113281-14.503907-31.742187-12.671875-62.550781-27.574219-92.183594-44.605469-33.984375-20.738281-55.734375-61.386718-58.175781-108.726562-.175781-3.761719-.292969-7.648438-.402344-11.609375-.621094-20.898437-1.445312-44.300781-11.929687-63.496094 25.582031 13.261719 50.101562 28.472657 73.351562 45.492188l-26.195312 14.855469c-12.257813 7.046874-16.804688 22.484374-10.332031 35.050781 21.152343 40.230469 46.164062 62.953125 76.378906 69.40625 5.851562 1.242187 11.816406 1.867187 17.796875 1.855469 15.734375-.367188 31.238281-3.875 45.601562-10.324219 7.832031 16.464843 14.230469 33.574219 19.117188 51.140625zm120.4375-290.015625 4.785156 7.914062c-7.226563 35.46875-18.859375 69.898438-34.632813 102.484375-21.703124 3.273438-43.691406 4.3125-65.609374 3.097656-4.636719-.253906-8.597657 3.304688-8.847657 7.9375-.25 4.636719 3.304688 8.597657 7.941407 8.847657 6.492187.347656 12.925781.519531 19.304687.519531 12.46875-.007812 24.925781-.707031 37.316406-2.097656-7.394531 12.746094-15.933593 24.796875-25.507812 36-38.222657 12.179687-67.917969 14.320312-85.914063 6.050781-4.214844-1.933594-9.195312-.082031-11.128906 4.128906-1.933594 4.214844-.085938 9.199219 4.128906 11.132813 10.78125 4.597656 22.425782 6.816406 34.144532 6.503906 11.527343-.183594 23.007812-1.527344 34.269531-4.003906-.261719.210937-.496094.445312-.753907.652344-14.867187 11.992187-30.96875 22.367187-48.027343 30.957031-.066407 0-.128907 0-.195313 0s-.109375.09375-.175781.125c-18.429687 10.21875-39.746094 13.972656-60.558594 10.660156-25.054687-5.363281-46.316406-25.246094-65.015625-60.792969-2.324218-4.539062-.671875-10.105468 3.753906-12.640625l264.863282-150.183593zm-328.996094 24.003906c1.65625 0 3.277344-.492187 4.65625-1.410156.363281-.242188 36.246094-23.316407 58.839844-8.140625 6.789062 4.53125 26.515625 31.589844 59.960937 92.445312l-21.242187 12.050782c-34.65625-26.296876-72.34375-48.339844-112.253907-65.652344-17.070312-13.90625-36.976562-23.90625-58.324218-29.292969zm0 0" data-original="#000000" class="active-path" data-old_color="#00FF51" fill="#161616"/><path d="m202.351562 50.550781c0 4.636719-3.757812 8.394531-8.394531 8.394531-4.632812 0-8.390625-3.757812-8.390625-8.394531 0-4.632812 3.757813-8.390625 8.390625-8.390625 4.636719 0 8.394531 3.757813 8.394531 8.390625zm0 0" data-original="#000000" class="active-path" data-old_color="#00FF51" fill="#161616"/></g> </svg>
